<?xml version="1.0" encoding="utf-8"?>
<!-- Generator: Adobe Illustrator 17.0.0, SVG Export Plug-In . SVG Version: 6.00 Build 0)  -->
<!DOCTYPE svg PUBLIC "-//W3C//DTD SVG 1.1//EN" "http://www.w3.org/Graphics/SVG/1.1/DTD/svg11.dtd">
<svg version="1.1" id="Layer_1" xmlns="http://www.w3.org/2000/svg" xmlns:xlink="http://www.w3.org/1999/xlink" x="0px" y="0px"
	 width="500px" height="194.424px" viewBox="0 0 500 194.424" enable-background="new 0 0 500 194.424" xml:space="preserve">
<g>
	<g>
		<g>
			<g>
				<g>
					<path fill="#CA8D78" d="M57.476,89.229c-0.662,0.463-1.325,0.93-1.984,1.395l0.031,0.03c0.031,0.069,0.064,0.137,0.092,0.204
						C56.242,90.322,56.858,89.774,57.476,89.229 M91.757,66.334c-3.796,2.39-7.567,4.818-11.318,7.279
						C84.209,71.187,87.983,68.76,91.757,66.334"/>
					<polyline fill="#441B29" points="102.83,60.441 102.85,60.373 102.791,60.386 102.83,60.441 					"/>
					<polyline fill="#441B29" points="105.77,60.979 105.706,60.987 105.794,61.032 105.77,60.979 					"/>
					<path fill="#441B29" d="M68.405,90.157c-0.144,0.086-0.279-0.138-0.134-0.225C68.415,89.846,68.549,90.07,68.405,90.157"/>
					<path fill="#D5C3C4" d="M105.768,60.978l0.005,0.003l0.024,0.05l-0.004,0C105.785,61.013,105.776,60.996,105.768,60.978"/>
					<path fill="#D5C3C4" d="M105.203,59.75c0.001-0.001,0.003-0.001,0.003,0l0.125,0.286c0,0,0-0.001-0.002,0.001
						C105.285,59.943,105.243,59.845,105.203,59.75"/>
					<path fill="#D5C3C4" d="M102.85,60.373l-0.021,0.068l-0.008-0.01C102.829,60.413,102.837,60.391,102.85,60.373"/>
					<path fill="#D5C3C4" d="M102.791,60.386l0.059-0.013c-0.018,0.009-0.038,0.015-0.056,0.017L102.791,60.386"/>
					<path fill="#D5C3C4" d="M105.561,58.472c0.032,0.041,0.057,0.086,0.077,0.137l-0.078-0.129
						C105.558,58.477,105.56,58.473,105.561,58.472"/>
					<path fill="#67473C" d="M105.706,60.987l0.062-0.009c0.008,0.018,0.017,0.034,0.024,0.053L105.706,60.987"/>
					<polyline fill="#351C1E" points="105.768,60.978 105.706,60.987 105.792,61.032 105.794,61.032 105.77,60.979 105.768,60.978 
											"/>
					<polyline fill="#351C1E" points="102.849,60.375 102.849,60.375 102.79,60.387 102.794,60.391 102.821,60.431 102.829,60.442 
						102.849,60.375 					"/>
					<path fill="#BC8878" d="M75.493,83.411c-2.682,1.604-5.301,3.327-7.864,5.106C70.192,86.739,72.811,85.015,75.493,83.411"/>
					<polyline fill="#BC8878" points="65.432,90.161 65.434,90.16 65.432,90.161 					"/>
					<polyline fill="#BC8878" points="75.493,83.411 75.496,83.409 75.493,83.411 					"/>
					<polyline fill="#BC8878" points="84.664,77.572 84.674,77.566 84.664,77.572 					"/>
					<path fill="#BC8878" d="M84.401,77.479c0.014,0.017,0.029,0.031,0.041,0.047c0.008,0.008,0.016,0.015,0.024,0.022
						c-0.008-0.007-0.016-0.014-0.024-0.022C84.43,77.511,84.415,77.496,84.401,77.479"/>
					<path fill="#BC8878" d="M84.772,77.256l0.002,0.005c0.052,0.113-0.001,0.241-0.089,0.3c0.088-0.059,0.141-0.188,0.089-0.3
						L84.772,77.256"/>
					<polyline fill="#A76955" points="65.238,90.245 65.242,90.245 65.238,90.245 					"/>
					<polyline fill="#A76955" points="80.239,77.189 80.245,77.184 80.239,77.189 					"/>
					<path fill="#A76955" d="M80.015,77.238L80.015,77.238c0.011,0,0.025,0.004,0.038,0.001
						C80.04,77.242,80.026,77.238,80.015,77.238"/>
					<path fill="#A76955" d="M80.354,76.73c0.133,0.143,0.063,0.333-0.077,0.435C80.418,77.063,80.487,76.873,80.354,76.73"/>
					<path fill="#A76955" d="M75.815,78.669c-0.573,0.343-1.102,0.69-1.538,0.968C74.713,79.359,75.241,79.012,75.815,78.669"/>
					<polyline fill="#A76955" points="75.82,78.668 75.853,78.648 75.82,78.668 					"/>
					<path fill="#A76955" d="M83.885,74.804c-0.063,0.04-0.131,0.081-0.199,0.136C83.755,74.886,83.822,74.845,83.885,74.804"/>
					<polyline fill="#A76955" points="83.89,74.802 83.902,74.794 83.89,74.802 					"/>
					<path fill="#A76955" d="M100.205,67.872c0.012-0.003,0.024-0.008,0.034-0.012c0.603-0.211,1.23-0.318,1.872-0.316
						c0.71-0.128,1.109-0.12,1.197,0.031c-0.087-0.15-0.487-0.159-1.197-0.031c-0.643-0.001-1.27,0.105-1.872,0.316
						C100.229,67.863,100.217,67.868,100.205,67.872"/>
					<path fill="#351C1E" d="M68.273,89.933c0.142-0.085,0.276,0.137,0.133,0.224C68.261,90.243,68.128,90.02,68.273,89.933"/>
					<g>
						<path fill="#351C1E" d="M11.252,124.766c0.747,2.65,3.733,4.709,6.191,3.357c1.854-0.326,3.647-1.295,5.328-2.053
							c2.417-1.094,4.816-2.22,7.204-3.377c5.214-2.524,9.054-4.273,12.9-6.344c-0.107-0.153-0.217-0.299-0.317-0.462
							c-2.494-4.05-1.578-10.924,3.137-13.133c4.299-2.014,8.826-3.684,13.165-5.689c-0.441-0.782-0.902-1.555-1.417-2.296
							c-0.161-0.62-0.484-1.217-0.739-1.801c-0.354-0.791-0.73-1.576-1.084-2.371l-0.035-0.029
							c15.105-10.67,30.502-20.925,46.297-30.496c0.548,0.671,1.088,1.348,1.69,1.975l0.167-0.005
							c0.54,0.85,1.079,1.699,1.623,2.545c0.406-0.132,0.815-0.229,1.226-0.294c-0.537-0.669-1.085-1.324-1.613-1.965
							c0.505,0.265,0.954,0.582,1.366,0.999c0.184,0.182,0.451-0.103,0.279-0.292c-0.309-0.341-0.636-0.618-0.992-0.86
							c0.228-0.028,0.453-0.072,0.666-0.165c0.387,0.74,0.802,1.469,1.226,2.193c2.789-0.105,5.54,1.23,7.414,3.318
							c0.221-0.31,0.444-0.618,0.656-0.934c2.725-4.067,7.553-6.151,12.148-4.123c3.946-3.057,7.381-6.359,12.187-10.72
							c4.264-3.869,8.352-7.931,12.248-12.171c1.04-1.135,5.226-5.144,3.122-7.108c-0.092-0.429-0.225-0.86-0.413-1.286
							c-0.091-0.213-0.387-0.28-0.587-0.236c-14.786,3.419-24.225,6.324-37.601,13.44c-4.806,2.556-9.519,5.264-14.183,8.061
							c-3.59-2.14-4.943-6.4-7.207-9.749c-1.748-2.585-12.015-13.435-15.411-13.798c-2.913-0.312-4.905,1.134-7.554,2.135
							c-3.452,1.303-6.328,2.109-9.559,3.886c-7.037,3.872-13.02,7.422-19.315,12.422c-2.883,2.292-4.971,3.577-7.39,6.363
							c-1.68,1.933-3.581,2.727-3.811,5.361c-0.273,3.184,6.235,17.748,7.589,20.48c1.728,3.493,3.423,7.03,5.339,10.424
							c-11.211,8.06-17.354,13.833-27.354,23.368C14.99,116.058,9.952,120.156,11.252,124.766z M105.331,60.037
							c-0.303-0.085-0.619-0.118-0.943-0.145c0.273-0.047,0.543-0.097,0.818-0.143L105.331,60.037z"/>
					</g>
				</g>
				<path fill="#5D3E31" d="M93.365,42.177C91.861,40.109,82.551,30.25,79.65,30.333c-2.162,0.061-2.835,0.702-4.83,1.432
					c-2.322,0.85-3.79,1.218-6.006,2.321c-3.837,1.911-8.087,4.081-11.715,6.36c-7.532,4.733-13.049,7.724-18.914,14.511
					c-1.36,1.566-3.311,3.409-3.694,5.504c-0.491,2.715,4.648,14.812,5.797,17.142c0.833,1.692,1.703,3.367,2.578,5.037
					c3.351-2.799,6.863-5.496,10.524-7.973l0.056-0.168c2.729-3.23,6.467-5.861,9.821-8.425c3.66-2.8,7.427-5.456,11.289-7.969
					c3.823-2.487,7.728-4.897,11.78-6.998c2.94-1.527,6.705-3.734,10.137-4.01C95.451,45.442,94.514,43.756,93.365,42.177z"/>
				<path fill="#5D3E31" d="M150.023,32.883c-3.01,0.676-5.972,1.509-8.909,2.45c-6.13,1.958-7.392,1.597-13.212,4.333
					c-11.268,5.295-21.965,11.633-32.5,18.242C78.903,68.259,62.328,78.75,46.504,90.185c-0.105,0.231-0.334,0.397-0.572,0.415
					c-4.65,3.372-9.239,6.821-13.736,10.382c-5.832,4.616-6.786,6.62-12.21,11.709c-2.306,2.166-5.058,4.368-6.71,7.113
					c-0.481,0.8-0.88,1.706-1.052,2.625c0.34-0.565,0.789-1.069,1.261-1.536c1.812-1.789,3.903-3.361,5.894-4.944
					c4.02-3.195,8.163-6.233,12.295-9.287c8.702-6.437,12.75-9.969,21.627-16.166c17.476-12.199,35.2-24.014,53.558-34.846
					c9.161-5.406,13.76-7.705,23.225-12.558c4.881-2.501,9.802-4.917,14.767-7.246c2.258-1.056,4.524-2.097,6.801-3.112
					c0.337-0.152,0.709-0.339,1.1-0.494C151.772,32.33,150.639,32.743,150.023,32.883z"/>
				<path fill="#351C1E" d="M98.236,49.672c-2.084,0.897-4.285,1.525-6.397,2.345c-2.813,1.096-5.307,2.621-7.994,3.942
					c-0.113,0.055-0.253-0.089-0.148-0.184c3.6-3.256,9.582-5.342,14.342-6.358c-0.455-0.6-0.882-1.236-1.291-1.878
					c-1.767,0.939-3.812,1.444-5.634,2.269c-1.743,0.789-3.438,1.68-5.113,2.603c-3.861,2.136-7.64,4.42-11.334,6.832
					c-3.582,2.343-7.08,4.81-10.486,7.399c-2.131,1.618-4.168,3.422-6.263,5.126c4.324-2.609,8.847-4.864,13.548-6.594
					c0.148-0.053,0.254,0.185,0.109,0.261c-10.082,5.16-19.651,10.669-28.197,18.179c0.976,1.856,1.952,3.711,2.894,5.584
					c11.509-8.223,23.393-15.904,35.273-23.575c5.124-3.308,10.257-6.6,15.447-9.81C83.098,62.696,69.844,70.332,57.288,79.56
					c-0.119,0.088-0.23-0.106-0.114-0.193c13.256-10.22,27.949-19.296,43.431-25.768c0.459-0.277,0.919-0.558,1.378-0.836
					C100.457,52.098,99.26,50.976,98.236,49.672z"/>
			</g>
			<path fill="#351C1E" d="M144.567,47.387c0,0-29.67,29.618-52.303,42c-22.633,12.382-29.694,18.804-69.493,36.684l13.195-20.212
				c0,0,41.422-34.359,70.113-49.748c28.693-15.389,30.278-8.543,30.278-8.543L144.567,47.387z"/>
		</g>
		<g>
			<path fill="#E1AD90" d="M122.522,76.805c0.001,0,0.003,0,0.003,0.001l0-0.001c-0.322-0.067-0.642-0.13-0.964-0.195
				c0.345,0.168,0.679,0.34,0.976,0.565C122.53,77.052,122.526,76.928,122.522,76.805z"/>
			<polygon fill="#E1AD90" points="122.539,77.175 122.538,77.175 122.539,77.177 			"/>
			<path fill="#E1AD90" d="M57.902,111.911c-0.425-0.251-0.793-0.617-1.165-0.937c-0.223-0.192,0.039-0.571,0.272-0.378
				c0.268,0.227,0.571,0.448,0.842,0.692c-0.086-1.021-0.19-1.98-0.384-2.558l-1.631-4.29c-0.373-0.818-4.67-3.615-5.175-4.363
				c-0.529-1.103,0.459,0.635-0.853,0.317c-0.908,0.874,2.9,7.462,1.99,8.336c-0.581,1.247,0.463,3.908,0.767,5.264
				c1.659,7.385,4.516,8.642,6.668,8.782c-0.031-0.312-0.046-0.627-0.056-0.942c0.033,0.056,0.075,0.122,0.127,0.197
				c0-0.008-0.001-0.015-0.002-0.024c-0.045-0.065-0.085-0.129-0.126-0.192c-0.005-0.153-0.028-0.304-0.027-0.458l-0.04,0.327
				c-0.002,0.01,0.013,0.039,0.023,0.063c-0.201-0.319-0.34-0.598-0.265-0.681c0.165-1.24,0.125-0.159,0.066-1.171
				c-0.255-0.155,0.67-0.308,0.718-0.461c-1.295-1.128-0.978-2.91-1.369-4.364C58.085,114.355,57.997,113.132,57.902,111.911z"/>
			<path fill="#E1AD90" d="M122.227,90.641c-0.057-0.127,0.755-9.133-1.201-11.685l0.204-0.061l0.062-0.814
				c-0.244-0.146-0.487-0.272-0.635-0.357c-0.071-0.04-0.108-0.099-0.12-0.165c0.095,0.316,0.193,0.635,0.291,0.954
				c-0.17-0.384-0.338-0.768-0.501-1.156c-0.015-0.04-0.032-0.081-0.052-0.121c-0.044-0.105-0.091-0.209-0.134-0.315
				c-0.231-0.564-0.803-1.035-1.4-1.124c-0.007-0.023-0.015-0.046-0.022-0.069c-2.311-2.611-5.27-7.791-8.023-9.813
				c-1.475-1.083-3.068-2.158-4.752-3.083c-20.908,10.86-37.766,22.78-47.659,30.362c-0.005,0.15-0.011,0.3-0.029,0.448
				c0.753,3.155,0.921,5.996,1.21,10.231c0.166,2.386,1.398,4.244,1.844,6.542c0.468,2.389,0.712,4.844,1.037,7.251
				c0.03,0.234-0.083,0.507-0.316,0.603c-0.194,0.078-0.392,0.158-0.585,0.236c0.343,0.66-0.302,1.557-1.308,1.561
				c0.151,1.126,0.366,2.219,0.613,3.296c-0.1-0.006-0.198,0.006-0.295,0.016c0.091,0.444,0.205,0.94,0.353,1.486
				c0.686,0.92,1.569,2.248,2.387,3.89l0.018-0.005c0.011,0.029,0.013,0.059,0.023,0.089c0.448,0.908,0.874,1.904,1.231,2.985
				c0.175,0.528,0.389,1.042,0.621,1.544c0.461,0.585,0.937,1.157,1.435,1.703c-0.184-0.715-0.012-1.521,0.246-2.2l0.244,0.059
				c-0.202,0.902-0.016,1.737-0.018,2.633c1.5,1.582,3.092,2.988,4.557,4.145c0.643,0.508,1.456,1.08,2.341,1.67
				c-0.244-0.514-0.405-1.06-0.414-1.636l0.201-0.034c0.382,0.711,0.662,1.454,0.986,2.179c2.144,1.391,4.537,2.803,6.042,3.674
				c-0.171-0.793-0.129-1.627,0.08-2.451l0.163,0.039c-0.189,0.888-0.126,1.753,0.081,2.599c0.723,0.416,1.173,0.668,1.173,0.668
				s1.415,2.555,3.663,5.082c-0.498-0.724-0.768-1.581-0.789-2.566l0.177-0.006c0.329,1.423,1.161,2.844,2.284,3.782l-0.153,0.219
				l-0.246-0.171c0.072,0.09,0.14,0.179,0.21,0.268c1.445,1.356,3.116,2.536,4.912,3.076c0.03,0.009,0.065,0.014,0.095,0.023
				c0.142,0.01,0.282,0.031,0.426,0.033l0.002,0.072c11.17,2.823,21.886-3.84,22.174-4.232c-0.05,0.048,3.065-4.714,3.065-4.714
				c0.331-0.395,6.555-17.867,7.484-31.59C126.668,98.531,122.227,90.641,122.227,90.641z"/>
			<path fill="#E1AD90" d="M122.05,79.089c0.045-0.035,0.062-0.11,0.034-0.261c-0.021-0.109-0.101-0.219-0.212-0.328
				C121.93,78.68,121.99,78.876,122.05,79.089z"/>
			<path fill="#E1AD90" d="M120.924,77.223c0.14,0.061,0.28,0.113,0.421,0.167l0.016-0.215c0,0,0.047,0.097,0.12,0.269
				c0.292,0.11,0.584,0.212,0.881,0.301c-0.526-0.581-1.374-0.886-2.054-1.32l-0.224,0.021l0.189,0.243
				c0.076,0.28,0.178,0.581,0.264,0.87C120.502,77.364,120.702,77.123,120.924,77.223z"/>
			<path fill="#E1AD90" d="M87.029,152.707l0.018-0.019c-0.074-0.054-0.14-0.113-0.211-0.17
				C86.9,152.582,86.965,152.644,87.029,152.707z"/>
		</g>
		<path fill="#361C1E" d="M57.504,123.716c0,0-9.315,1.488-7.701,10.281c1.614,8.793-9.695,12.55-7.927,16.502
			c1.767,3.953-3.351,16.4-3.351,16.4s34.939,7.547,34.447-18.659c-0.176-9.399,1.051-7.369,1.051-7.369s-4.722-3.986-6.395-9.05
			c-1.673-5.064-4.839-8.405-4.839-8.405s-2.975,0.318-5.885-3.352C56.328,119.34,57.504,123.716,57.504,123.716z"/>
		<g>
			<g>
				<g>
					<path fill="#341A1D" d="M112.641,122.557c0,0,0.055,0.024,0.115,0.068c0.057,0.055,0.114,0.093,0.152,0.141
						c0.041,0.051,0.072,0.122,0.1,0.177c0.024,0.062,0.043,0.125,0.043,0.125s-0.053,0.018-0.136,0.012
						c-0.089,0-0.162-0.068-0.239-0.135c-0.05-0.095-0.097-0.192-0.073-0.261C112.617,122.611,112.641,122.557,112.641,122.557z"/>
				</g>
				<g>
					<path fill="#341A1D" d="M113.768,123.478c0,0,0.087-0.007,0.208,0.004c0.121,0.011,0.267,0.062,0.412,0.116
						c0.137,0.073,0.272,0.15,0.362,0.235c0.09,0.085,0.144,0.156,0.144,0.156s-0.087,0.008-0.208-0.004
						c-0.121-0.011-0.267-0.062-0.412-0.117c-0.137-0.073-0.272-0.151-0.362-0.235C113.821,123.55,113.768,123.478,113.768,123.478z
						"/>
				</g>
				<g>
					<path fill="#341A1D" d="M113.051,125.628c0,0,0.106,0.011,0.253,0.048c0.149,0.028,0.32,0.144,0.494,0.251
						c0.153,0.113,0.297,0.245,0.406,0.335c0.106,0.1,0.178,0.186,0.178,0.186s-0.102-0.004-0.256-0.039
						c-0.162-0.027-0.327-0.14-0.5-0.243c-0.149-0.114-0.285-0.243-0.401-0.345C113.115,125.714,113.051,125.628,113.051,125.628z"
						/>
				</g>
				<g>
					<path fill="#341A1D" d="M110.184,125.935c0,0,0.107,0.022,0.254,0.074c0.147,0.052,0.322,0.155,0.494,0.261
						c0.16,0.123,0.316,0.25,0.419,0.371c0.103,0.12,0.164,0.215,0.164,0.215s-0.105-0.021-0.251-0.074
						c-0.146-0.053-0.321-0.158-0.494-0.266c-0.161-0.123-0.32-0.249-0.423-0.369C110.244,126.028,110.184,125.935,110.184,125.935z
						"/>
				</g>
				<g>
					<path fill="#341A1D" d="M108.316,126.379c0,0,0.057,0.046,0.133,0.103c0.069,0.059,0.132,0.143,0.207,0.22
						c0.045,0.101,0.117,0.169,0.153,0.253c0.036,0.083,0.059,0.159,0.059,0.159s-0.066,0-0.163-0.03
						c-0.098-0.029-0.214-0.103-0.287-0.208c-0.072-0.107-0.121-0.227-0.122-0.33C108.289,126.447,108.322,126.378,108.316,126.379z
						"/>
				</g>
				<g>
					<path fill="#341A1D" d="M109.672,127.676c0,0,0.124,0.015,0.3,0.058c0.176,0.043,0.392,0.136,0.606,0.233
						c0.211,0.098,0.422,0.197,0.567,0.3c0.146,0.102,0.236,0.185,0.236,0.185s-0.127-0.005-0.308-0.036
						c-0.181-0.03-0.406-0.106-0.629-0.187c-0.205-0.115-0.409-0.233-0.548-0.348C109.758,127.767,109.672,127.676,109.672,127.676z
						"/>
				</g>
				<g>
					<path fill="#341A1D" d="M105.474,124.195c0,0,0.048,0.067,0.095,0.17c0.036,0.114,0.103,0.217,0.139,0.329
						c0.054,0.113,0.088,0.24,0.129,0.337c0.032,0.102,0.046,0.188,0.046,0.188s-0.075-0.024-0.177-0.087
						c-0.112-0.056-0.187-0.194-0.271-0.328c-0.036-0.161-0.076-0.325-0.031-0.427C105.437,124.269,105.474,124.195,105.474,124.195
						z"/>
				</g>
				<g>
					<path fill="#341A1D" d="M103.376,126.857c0,0,0.043,0.051,0.083,0.128c0.04,0.077,0.054,0.179,0.065,0.281
						c-0.01,0.102-0.024,0.205-0.064,0.282c-0.04,0.077-0.083,0.128-0.083,0.128s-0.043-0.051-0.083-0.128
						c-0.04-0.077-0.054-0.179-0.064-0.282c0.01-0.102,0.024-0.205,0.065-0.281C103.333,126.908,103.376,126.857,103.376,126.857z"
						/>
				</g>
				<g>
					<path fill="#341A1D" d="M100.56,124.604c0,0,0.045,0.04,0.087,0.102c0.011,0.034,0.048,0.061,0.042,0.114
						c-0.003,0.051-0.007,0.106-0.01,0.16c-0.051,0.095-0.098,0.189-0.189,0.214c-0.081,0.029-0.136,0.024-0.136,0.024
						s0.004-0.067,0.009-0.131c0.012-0.056,0.015-0.134,0.033-0.189c0.018-0.054,0.056-0.11,0.085-0.185
						C100.519,124.649,100.56,124.604,100.56,124.604z"/>
				</g>
				<g>
					<path fill="#341A1D" d="M101.269,126.675c0,0,0.045,0.041,0.087,0.102c0.011,0.034,0.048,0.061,0.042,0.114
						c-0.003,0.051-0.007,0.106-0.01,0.16c-0.051,0.094-0.099,0.189-0.189,0.214c-0.081,0.029-0.136,0.024-0.136,0.024
						s0.004-0.067,0.009-0.131c0.012-0.056,0.015-0.134,0.033-0.189c0.018-0.053,0.056-0.11,0.085-0.185
						C101.228,126.719,101.269,126.675,101.269,126.675z"/>
				</g>
				<g>
					<path fill="#341A1D" d="M98.46,126.447c0,0-0.007,0.086-0.038,0.201c-0.015,0.116-0.143,0.241-0.263,0.365
						c-0.145,0.076-0.286,0.159-0.414,0.157c-0.124,0.008-0.206-0.006-0.206-0.006s0.057-0.07,0.14-0.146
						c0.089-0.068,0.191-0.164,0.303-0.24c0.095-0.082,0.212-0.139,0.304-0.224C98.383,126.484,98.46,126.447,98.46,126.447z"/>
				</g>
				<g>
					<path fill="#341A1D" d="M97.539,124.502c0,0-0.044,0.109-0.128,0.255c-0.084,0.147-0.223,0.316-0.367,0.482
						c-0.198,0.125-0.399,0.244-0.563,0.305c-0.163,0.062-0.273,0.084-0.273,0.084s0.072-0.1,0.182-0.222
						c0.11-0.122,0.272-0.247,0.439-0.367c0.158-0.152,0.319-0.302,0.461-0.395C97.432,124.553,97.539,124.502,97.539,124.502z"/>
				</g>
				<g>
					<path fill="#341A1D" d="M96.515,128.29c0,0-0.038,0.091-0.112,0.21c-0.06,0.126-0.235,0.228-0.395,0.342
						c-0.171,0.069-0.342,0.14-0.482,0.153c-0.14,0.016-0.239,0.012-0.239,0.012s0.065-0.075,0.173-0.164
						c0.11-0.087,0.258-0.179,0.412-0.261c0.139-0.081,0.297-0.129,0.421-0.204C96.419,128.318,96.515,128.29,96.515,128.29z"/>
				</g>
				<g>
					<path fill="#341A1D" d="M94.314,124.195c0,0,0.048,0.066,0.095,0.168c0.014,0.053,0.054,0.105,0.044,0.184
						c-0.005,0.077-0.011,0.158-0.017,0.24c-0.071,0.144-0.13,0.297-0.251,0.351c-0.106,0.063-0.179,0.081-0.179,0.081
						s0.019-0.088,0.049-0.183c0.043-0.085,0.057-0.217,0.097-0.324c0.022-0.11,0.073-0.22,0.092-0.337
						C94.277,124.268,94.314,124.195,94.314,124.195z"/>
				</g>
				<g>
					<path fill="#341A1D" d="M95.031,126.755c0,0,0.037,0.059,0.067,0.144c0.044,0.077,0.002,0.213-0.043,0.346
						c-0.087,0.097-0.169,0.197-0.274,0.211c-0.096,0.023-0.16,0.016-0.16,0.016s0.023-0.071,0.056-0.146
						c0.042-0.067,0.073-0.158,0.122-0.228c0.03-0.069,0.096-0.127,0.134-0.218C94.983,126.804,95.031,126.755,95.031,126.755z"/>
				</g>
				<g>
					<path fill="#341A1D" d="M92.471,125.116c0,0,0.001,0.109-0.012,0.264c-0.011,0.151-0.067,0.351-0.144,0.548
						c-0.104,0.187-0.239,0.372-0.398,0.447c-0.064,0.053-0.152,0.044-0.193,0.06c-0.045,0.008-0.071,0.012-0.071,0.012
						c0.02-0.009,0.258-0.303,0.396-0.644c0.087-0.17,0.167-0.349,0.256-0.482C92.394,125.193,92.471,125.116,92.471,125.116z"/>
				</g>
				<g>
					<path fill="#341A1D" d="M92.369,128.086c0,0-0.085,0.046-0.213,0.09c-0.135,0.034-0.283,0.091-0.436,0.125
						c-0.158,0.041-0.323,0.068-0.453,0.086c-0.132,0.012-0.23,0.006-0.23,0.006s0.061-0.072,0.168-0.16
						c0.104-0.094,0.275-0.154,0.444-0.218c0.187-0.022,0.375-0.051,0.501-0.005C92.281,128.046,92.369,128.086,92.369,128.086z"/>
				</g>
				<g>
					<path fill="#341A1D" d="M90.219,125.526c0,0,0.006,0.035,0.015,0.096c0.005,0.061,0.037,0.146,0.02,0.255
						c-0.001,0.227-0.094,0.495-0.213,0.756c-0.15,0.243-0.322,0.479-0.516,0.593c-0.081,0.072-0.181,0.09-0.238,0.113
						c-0.058,0.019-0.091,0.03-0.091,0.03s0.107-0.099,0.215-0.264c0.065-0.073,0.116-0.177,0.183-0.278
						c0.072-0.096,0.124-0.219,0.187-0.332c0.124-0.226,0.237-0.469,0.31-0.645C90.175,125.666,90.219,125.526,90.219,125.526z"/>
				</g>
				<g>
					<path fill="#341A1D" d="M88.376,125.833c0,0-0.09,0.046-0.226,0.09c-0.132,0.052-0.327,0.046-0.522,0.043
						c-0.188-0.048-0.378-0.083-0.497-0.182c-0.122-0.086-0.188-0.156-0.188-0.156s0.105-0.008,0.241,0
						c0.132,0.018,0.311,0.021,0.48,0.047c0.17,0.019,0.339,0.056,0.481,0.083C88.283,125.793,88.376,125.833,88.376,125.833z"/>
				</g>
				<g>
					<path fill="#341A1D" d="M83.666,128.188c0,0,0.041-0.101,0.12-0.234c0.047-0.06,0.094-0.142,0.111-0.22
						c0.027-0.077,0.065-0.15,0.09-0.231c0.039-0.175,0.107-0.349,0.12-0.496c0.032-0.144,0.07-0.252,0.07-0.252
						s0.048,0.092,0.096,0.248c0.012,0.078,0.06,0.171,0.036,0.272c-0.014,0.102-0.028,0.21-0.043,0.319
						c-0.046,0.104-0.114,0.205-0.168,0.296c-0.051,0.102-0.134,0.139-0.197,0.182C83.767,128.148,83.666,128.188,83.666,128.188z"
						/>
				</g>
				<g>
					<path fill="#341A1D" d="M85.509,127.164c0,0,0.046,0.102,0.091,0.255c0.012,0.078,0.057,0.161,0.025,0.272
						c-0.023,0.109-0.047,0.225-0.071,0.341c-0.061,0.097-0.13,0.188-0.19,0.274c-0.053,0.094-0.152,0.134-0.22,0.18
						c-0.149,0.08-0.249,0.112-0.249,0.112s0.054-0.106,0.135-0.231c0.099-0.111,0.161-0.296,0.255-0.45
						c0.029-0.083,0.059-0.166,0.086-0.244c0.042-0.073,0.052-0.173,0.064-0.249C85.47,127.268,85.509,127.164,85.509,127.164z"/>
				</g>
				<g>
					<path fill="#341A1D" d="M81.414,129.826c0,0-0.043-0.115-0.083-0.288c-0.04-0.173-0.054-0.403-0.065-0.633
						c0.01-0.23,0.024-0.461,0.064-0.633c0.04-0.173,0.083-0.288,0.083-0.288s0.043,0.115,0.083,0.288
						c0.04,0.173,0.054,0.403,0.064,0.633c-0.01,0.23-0.024,0.461-0.065,0.633C81.456,129.711,81.414,129.826,81.414,129.826z"/>
				</g>
				<g>
					<path fill="#341A1D" d="M115.525,125.478c0,0-0.076,0.045-0.19,0.089c-0.059,0.012-0.119,0.053-0.207,0.03
						c-0.085-0.017-0.176-0.034-0.267-0.052c-0.144-0.1-0.297-0.189-0.343-0.32c-0.058-0.118-0.075-0.198-0.075-0.198
						s0.089,0.031,0.191,0.08c0.092,0.062,0.23,0.102,0.344,0.168c0.115,0.031,0.221,0.111,0.352,0.128
						C115.447,125.438,115.525,125.478,115.525,125.478z"/>
				</g>
				<g>
					<path fill="#341A1D" d="M110.29,123.853c0,0,0.07-0.004,0.163,0.011c0.092,0.014,0.194,0.066,0.293,0.121
						c0.089,0.03,0.173,0.057,0.238,0.116c0.065,0.057,0.119,0.114,0.119,0.114s-0.056,0.031-0.156,0.048
						c-0.099,0.017-0.237-0.001-0.364-0.033c-0.088-0.072-0.173-0.147-0.221-0.228C110.313,123.92,110.29,123.853,110.29,123.853z"
						/>
				</g>
				<g>
					<path fill="#341A1D" d="M111.958,124.09c0,0,0.07-0.004,0.163,0.011c0.092,0.014,0.194,0.066,0.293,0.121
						c0.089,0.03,0.173,0.057,0.238,0.116c0.065,0.057,0.119,0.114,0.119,0.114s-0.056,0.031-0.156,0.048
						c-0.099,0.017-0.237-0.001-0.364-0.033c-0.088-0.072-0.173-0.147-0.221-0.228C111.981,124.157,111.958,124.09,111.958,124.09z"
						/>
				</g>
				<g>
					<path fill="#341A1D" d="M112.185,126.922c0,0,0.085,0.027,0.196,0.086c0.111,0.058,0.231,0.165,0.349,0.271
						c0.105,0.114,0.208,0.232,0.267,0.344c0.06,0.112,0.091,0.201,0.091,0.201s-0.084-0.021-0.197-0.074
						c-0.114-0.053-0.242-0.156-0.368-0.262c-0.105-0.122-0.204-0.248-0.258-0.363C112.21,127.01,112.185,126.922,112.185,126.922z"
						/>
				</g>
				<g>
					<path fill="#341A1D" d="M107.311,124.395c0,0,0.053,0.051,0.109,0.133c0.045,0.098,0.12,0.163,0.162,0.236
						c0.061,0.066,0.107,0.163,0.17,0.218c0.054,0.068,0.1,0.135,0.1,0.135s-0.064,0.019-0.175,0.013
						c-0.12,0.008-0.228-0.096-0.336-0.196c-0.028-0.07-0.057-0.141-0.083-0.207c-0.032-0.068,0-0.119,0-0.167
						C107.28,124.462,107.311,124.395,107.311,124.395z"/>
				</g>
				<g>
					<path fill="#341A1D" d="M109.215,124.551c0,0,0.053,0.051,0.109,0.133c0.045,0.097,0.12,0.163,0.162,0.236
						c0.061,0.066,0.107,0.164,0.17,0.218c0.054,0.068,0.1,0.135,0.1,0.135s-0.064,0.019-0.175,0.012
						c-0.12,0.008-0.228-0.096-0.336-0.196c-0.028-0.071-0.057-0.141-0.083-0.207c-0.032-0.068,0-0.119,0-0.167
						C109.184,124.618,109.215,124.551,109.215,124.551z"/>
				</g>
				<g>
					<path fill="#341A1D" d="M106.503,126.832c0,0,0.039,0.064,0.072,0.158c0.02,0.105,0.073,0.195,0.098,0.283
						c0.006,0.049,0.03,0.1,0.043,0.149c0.014,0.05,0.013,0.105,0.032,0.143c0.018,0.089,0.025,0.169,0.025,0.169
						s-0.067-0.017-0.161-0.073c-0.101-0.053-0.16-0.177-0.223-0.305c-0.008-0.074-0.015-0.147-0.023-0.217
						c-0.012-0.072,0.031-0.115,0.042-0.162C106.457,126.89,106.503,126.832,106.503,126.832z"/>
				</g>
				<g>
					<path fill="#341A1D" d="M105.131,126.164c0,0,0.039,0.064,0.072,0.158c0.02,0.105,0.073,0.195,0.098,0.283
						c0.006,0.049,0.03,0.1,0.043,0.149c0.014,0.05,0.013,0.105,0.032,0.143c0.018,0.089,0.025,0.169,0.025,0.169
						s-0.067-0.017-0.161-0.073c-0.101-0.053-0.16-0.177-0.223-0.305c-0.008-0.074-0.015-0.147-0.023-0.217
						c-0.012-0.072,0.031-0.115,0.042-0.162C105.084,126.222,105.131,126.164,105.131,126.164z"/>
				</g>
				<g>
					<path fill="#341A1D" d="M107.023,125.785c0,0,0.039,0.064,0.072,0.158c0.02,0.105,0.073,0.195,0.098,0.283
						c0.006,0.049,0.03,0.1,0.043,0.149c0.014,0.05,0.013,0.105,0.032,0.143c0.018,0.089,0.025,0.169,0.025,0.169
						s-0.067-0.017-0.161-0.073c-0.101-0.053-0.16-0.177-0.223-0.305c-0.008-0.074-0.015-0.147-0.023-0.217
						c-0.012-0.072,0.031-0.115,0.042-0.162C106.976,125.843,107.023,125.785,107.023,125.785z"/>
				</g>
				<g>
					<path fill="#341A1D" d="M104.427,124.846c0,0,0.048,0.02,0.095,0.054c0.048,0.034,0.073,0.088,0.094,0.142
						c0.001,0.058-0.001,0.118-0.032,0.168c-0.03,0.05-0.067,0.087-0.067,0.087s-0.048-0.02-0.095-0.054
						c-0.048-0.034-0.073-0.088-0.094-0.143c-0.001-0.058,0.001-0.118,0.032-0.168C104.391,124.883,104.427,124.846,104.427,124.846
						z"/>
				</g>
				<g>
					<path fill="#341A1D" d="M94.222,128.452c0,0,0,0.026-0.001,0.071c-0.009,0.045,0.017,0.111-0.022,0.186
						c-0.047,0.172-0.195,0.33-0.362,0.461c-0.182,0.105-0.375,0.178-0.53,0.19c-0.154,0.013-0.258-0.005-0.258-0.005
						s0.083-0.067,0.202-0.151c0.119-0.084,0.279-0.174,0.422-0.278c0.148-0.092,0.286-0.204,0.378-0.29
						C94.154,128.538,94.222,128.452,94.222,128.452z"/>
				</g>
				<g>
					<path fill="#341A1D" d="M89.98,129.089c0,0-0.024,0.09-0.079,0.209c-0.033,0.055-0.054,0.128-0.141,0.175
						c-0.076,0.05-0.162,0.109-0.25,0.153c-0.091,0.012-0.183,0.025-0.269,0.036c-0.085,0.02-0.164-0.021-0.229-0.033
						c-0.131-0.044-0.207-0.09-0.207-0.09s0.09-0.04,0.208-0.076c0.12-0.02,0.26-0.083,0.401-0.116
						c0.114-0.06,0.255-0.068,0.364-0.162C89.892,129.121,89.98,129.089,89.98,129.089z"/>
				</g>
				<g>
					<path fill="#341A1D" d="M87.904,127.915c0,0-0.087,0.052-0.22,0.106c-0.138,0.045-0.299,0.111-0.466,0.156
						c-0.191,0.023-0.379,0.06-0.529,0.004c-0.146-0.041-0.229-0.085-0.229-0.085s0.099-0.042,0.227-0.081
						c0.126-0.024,0.295-0.086,0.463-0.124c0.19-0.03,0.381-0.07,0.519-0.035C87.809,127.882,87.904,127.915,87.904,127.915z"/>
				</g>
				<g>
					<path fill="#341A1D" d="M96.389,123.582c0,0,0.041,0.081,0.079,0.201c0.009,0.061,0.047,0.126,0.016,0.215
						c-0.024,0.087-0.049,0.18-0.074,0.272c-0.114,0.14-0.217,0.291-0.354,0.33c-0.125,0.052-0.209,0.065-0.209,0.065
						s0.039-0.088,0.099-0.189c0.072-0.09,0.125-0.229,0.202-0.341c0.028-0.058,0.056-0.116,0.082-0.17
						c0.038-0.049,0.057-0.127,0.072-0.185C96.345,123.661,96.389,123.582,96.389,123.582z"/>
				</g>
				<g>
					<path fill="#341A1D" d="M102.295,124.37c0,0,0.041,0.081,0.079,0.201c0.009,0.061,0.047,0.126,0.016,0.215
						c-0.024,0.087-0.049,0.18-0.074,0.273c-0.114,0.14-0.217,0.291-0.354,0.33c-0.125,0.052-0.209,0.065-0.209,0.065
						s0.039-0.088,0.099-0.189c0.072-0.09,0.125-0.229,0.202-0.342c0.028-0.058,0.056-0.115,0.082-0.17
						c0.038-0.048,0.057-0.127,0.072-0.185C102.251,124.449,102.295,124.37,102.295,124.37z"/>
				</g>
				<g>
					<path fill="#341A1D" d="M100.27,122.68c0,0-0.007,0.067-0.033,0.15c-0.014,0.083-0.125,0.165-0.225,0.236
						c-0.115,0.033-0.227,0.069-0.32,0.035c-0.09-0.025-0.143-0.06-0.143-0.06s0.049-0.052,0.112-0.103
						c0.065-0.043,0.141-0.098,0.221-0.136c0.073-0.039,0.154-0.049,0.238-0.089C100.203,122.686,100.27,122.68,100.27,122.68z"/>
				</g>
				<g>
					<path fill="#341A1D" d="M108.123,122.86c0,0,0.045-0.022,0.099-0.035c0.054-0.015,0.106,0.007,0.152,0.017
						c0.033,0.021,0.065,0.048,0.081,0.098c0.017,0.049,0.029,0.1,0.029,0.1s-0.035,0.033-0.089,0.054
						c-0.054,0.022-0.118,0.012-0.179-0.004c-0.045-0.034-0.074-0.075-0.085-0.128C108.121,122.909,108.123,122.86,108.123,122.86z"
						/>
				</g>
				<g>
					<path fill="#341A1D" d="M110.019,121.596c0-0.005,0.082,0.079,0.206,0.157c0.053,0.042,0.122,0.073,0.199,0.117
						c0.067,0.051,0.159,0.081,0.24,0.121c0.164,0.084,0.34,0.154,0.475,0.216c0.14,0.067,0.234,0.111,0.234,0.111
						c0.001-0.006-0.101,0.041-0.263,0.052c-0.162,0.016-0.372-0.034-0.573-0.113c-0.189-0.109-0.365-0.238-0.445-0.406
						c-0.053-0.069-0.043-0.14-0.059-0.184C110.024,121.622,110.019,121.596,110.019,121.596z"/>
				</g>
				<g>
					<path fill="#341A1D" d="M112.727,121.687c0,0,0.092-0.014,0.222-0.011c0.13-0.005,0.292,0.063,0.452,0.119
						c0.141,0.054,0.278,0.134,0.389,0.16c0.111,0.045,0.201,0.093,0.201,0.093s-0.076,0.039-0.214,0.073
						c-0.066,0.006-0.156,0.041-0.234,0.011c-0.082-0.021-0.169-0.043-0.256-0.065c-0.146-0.072-0.279-0.16-0.389-0.233
						C112.792,121.754,112.727,121.687,112.727,121.687z"/>
				</g>
				<g>
					<path fill="#341A1D" d="M115.796,122.86c0,0,0.1-0.033,0.248-0.059c0.148-0.026,0.341-0.019,0.533-0.009
						c0.18,0.005,0.367,0.045,0.502,0.038c0.14,0.01,0.252,0.03,0.252,0.03s-0.078,0.061-0.221,0.133
						c-0.144,0.09-0.35,0.08-0.555,0.093c-0.193-0.031-0.385-0.067-0.525-0.12C115.888,122.912,115.796,122.86,115.796,122.86z"/>
				</g>
			</g>
			<g>
				<path fill="#341A1D" d="M59.405,121.531l0.732-0.288c0,0,0.206,3.616,2.26,7.907c2.054,4.291,5.925,8.007,9.153,10.555
					c3.228,2.548,10.653,6.709,10.653,6.709s4.419,7.987,10.058,9.682c5.639,1.695,18.094,0.065,21.99-4.657
					c2.727-3.305,3.266-5.281,4.066-7.321c-0.116,1.075-0.152,2.165-0.295,3.161c-0.699,2.815-2.765,6.704-12.274,9.288
					c-13.887,3.775-18.132-1.671-23.793-9.011c-8.589-6.479-15.529-6.328-22.328-22.962
					C59.18,121.511,59.405,121.531,59.405,121.531z"/>
				<path fill="none" stroke="#341A1D" stroke-width="1.1782" stroke-miterlimit="10" d="M121.361,77.176
					c0,0,2.414,4.843,0.939,11.857c-0.908,4.318,4.217,6.776,3.548,19.753c-0.51,9.896-0.327,13.12-3.134,20.824
					c-4.002,10.984-3.343,17.069-6.957,20.891"/>
				<g>
					<g>
						<g>
							<g>
								<g>
									<g>
										<path fill="#341A1D" d="M96.705,135.318c0,0,0.596-0.071,1.457-0.025c0.208-0.004,0.434-0.007,0.673-0.011
											c0.225,0.002,0.462,0.003,0.707,0.005c0.266-0.011,0.542-0.04,0.821-0.039c0.276-0.009,0.573,0.011,0.835-0.029
											c0.27-0.014,0.54-0.027,0.806-0.041c0.266-0.021,0.53,0.005,0.79-0.027c0.518-0.039,1.011-0.037,1.437-0.038
											c0.839-0.048,1.447,0.016,1.447,0.016s-0.498,0.317-1.319,0.648c-0.411,0.154-0.904,0.28-1.437,0.404
											c-0.532,0.131-1.135,0.154-1.724,0.216c-0.302,0.026-0.574-0.009-0.857-0.013c-0.279-0.007-0.553-0.044-0.819-0.063
											c-0.324-0.033-0.556-0.115-0.815-0.172c-0.248-0.06-0.485-0.122-0.688-0.197
											C97.218,135.632,96.705,135.318,96.705,135.318z"/>
									</g>
									<polygon fill="#E4BBA9" points="84.955,95.037 85.044,95.021 85.02,95.169 									"/>
									<path fill="#341A1D" d="M99.915,85.972c-0.87-0.078-1.647,0.093-2.49,0.262L97.4,86.153c0.773-0.38,1.688-0.407,2.53-0.309
										L99.915,85.972"/>
									<path fill="#341A1D" d="M102.996,143.511l0.193,0.078c0.387,0.15-0.056,0.719-0.299,0.323l-0.106-0.174
										C102.704,143.608,102.872,143.458,102.996,143.511"/>
									<path fill="#341A1D" d="M106.273,151.486l-0.051,0.306c-0.03,0.197-0.347,0.299-0.426,0.071l-0.097-0.281
										C105.524,151.068,106.351,151.036,106.273,151.486"/>
									<path fill="#341A1D" d="M100.42,140.223c-0.139,0.029-0.269-0.155-0.17-0.274c0.678-0.811,1.985-0.769,2.91-0.473
										c0.349,0.111,0.145,0.628-0.198,0.528C102.025,139.725,101.321,140.053,100.42,140.223"/>
									<path fill="#341A1D" d="M124.043,107.697c-0.085-0.24,0.192-0.565,0.429-0.354c0.632,0.557,1.412,2.045,1.091,2.895
										l-0.347,0.059c-0.288-0.326-0.373-0.84-0.529-1.243C124.507,108.582,124.215,108.166,124.043,107.697"/>
									<path fill="#341A1D" d="M103.463,153.658c0.081-0.437,0.725-0.296,0.598,0.139l-0.112,0.382
										c-0.089,0.31-0.611,0.189-0.554-0.132L103.463,153.658z"/>
									<path fill="#341A1D" d="M124.767,112.077l-0.217-0.05c-0.117-0.279-0.05-0.608-0.151-0.895
										c-0.117-0.342-0.351-0.599-0.663-0.778c-0.283-0.159,0.014-0.568,0.292-0.41c0.398,0.227,0.7,0.59,0.847,1.022
										C124.99,111.312,125.077,111.809,124.767,112.077"/>
									<path fill="#341A1D" d="M98.569,87.041c0.121-0.048,0.189,0.031,0.198,0.114c0.014,0.091-0.037,0.192-0.152,0.168
										l-0.244-0.047l-0.025-0.15L98.569,87.041"/>
									<path fill="#341A1D" d="M59.204,119.909l-0.071-0.026c0.023,0.151,0.04,0.3,0.048,0.451
										C59.189,120.192,59.192,120.049,59.204,119.909"/>
									<polyline fill="#341A1D" points="122.618,78.406 122.544,78.388 122.622,78.474 122.618,78.406 									"/>
									<path fill="#341A1D" d="M53.863,101.882c-0.189-0.154-0.397-0.271-0.635-0.342c-0.214-0.06-0.443-0.071-0.653-0.146
										l-0.011-0.258c0.497-0.258,1.172,0.056,1.567,0.368C54.369,101.691,54.095,102.069,53.863,101.882"/>
									<path fill="#341A1D" d="M64.747,125.94l-0.193,0.069c-0.132,0.047-0.315-0.039-0.286-0.208l0.031-0.181
										c0.04-0.23,0.295-0.369,0.497-0.223C64.977,125.523,64.975,125.858,64.747,125.94"/>
									<path fill="#341A1D" d="M66.151,126.867c-0.102,0.219-0.43,0.099-0.354-0.137c0.071-0.222,0.156-0.441,0.242-0.659
										c0.094-0.254,0.497-0.1,0.391,0.148C66.337,126.435,66.25,126.653,66.151,126.867"/>
									<path fill="#341A1D" d="M58.039,111.995c-0.486-0.246-0.89-0.666-1.302-1.021c-0.223-0.192,0.039-0.571,0.271-0.379
										c0.412,0.349,0.914,0.677,1.238,1.109C58.343,111.84,58.219,112.082,58.039,111.995"/>
									<path fill="#341A1D" d="M67.398,128.458c-0.204-0.017-0.265-0.214-0.199-0.382l0.206-0.401
										c0.067-0.164,0.082-0.331,0.063-0.51c-0.037-0.338,0.473-0.431,0.526-0.089c0.042,0.284,0.024,0.571-0.076,0.843
										C67.842,128.127,67.666,128.477,67.398,128.458"/>
									<path fill="#341A1D" d="M101.171,141.255c0.177-0.165,0.38-0.147,0.617-0.166c0.243-0.028,0.489-0.047,0.739-0.071
										c0.403-0.035,0.511,0.592,0.106,0.625c-0.267,0.019-0.534,0.042-0.8,0.062c-0.24,0.021-0.438,0.066-0.645-0.072
										L101.171,141.255z"/>
									<path fill="#341A1D" d="M69.28,129.459c-0.018,0.135-0.129,0.299-0.285,0.305l-0.178-0.018
										c-0.137-0.044-0.243-0.212-0.22-0.358c0.087-0.55,0.192-1.093,0.295-1.642c0.071-0.392,0.686-0.342,0.628,0.069
										C69.439,128.363,69.369,128.914,69.28,129.459"/>
									<path fill="#341A1D" d="M99.761,154.253c0.272-0.216,0.608-0.236,0.92-0.359c0.357-0.144,0.667-0.387,0.914-0.683
										c0.511-0.619,0.743-1.435,0.51-2.21c-0.084-0.281,0.379-0.415,0.491-0.151c0.414,0.953,0.268,1.995-0.357,2.821
										c-0.46,0.606-1.683,1.602-2.46,0.978C99.653,154.552,99.63,154.357,99.761,154.253"/>
									<path fill="#341A1D" d="M70.988,128.306c0.158,0.457,0.274,0.919,0.313,1.399c0.03,0.374,0.099,0.886-0.244,1.123
										l-0.349-0.03c-0.249-0.268-0.146-0.65-0.151-0.99c-0.005-0.445-0.076-0.882-0.191-1.309
										C70.267,128.145,70.866,127.954,70.988,128.306"/>
									<path fill="#341A1D" d="M54.505,104.108c-0.46-0.23-0.934-0.398-1.445-0.472c-0.417-0.06-0.845-0.022-1.252-0.121
										l-0.011-0.246c0.863-0.383,2.071,0.056,2.848,0.468C54.861,103.853,54.733,104.219,54.505,104.108"/>
									<path fill="#341A1D" d="M122.125,116.587l-0.173,0.099l-0.098-0.088l0.07-0.198
										C122.014,116.159,122.38,116.441,122.125,116.587"/>
									<path fill="#341A1D" d="M117.636,123.567c0.014-0.153,0.244-0.127,0.237,0.024c-0.084,1.866-0.663,4.114-1.984,5.572
										c0.05-0.026,0.108-0.026,0.165-0.012c-0.061,0.037-0.123,0.071-0.182,0.119c-0.082,0.066-0.149,0.129-0.224,0.194
										c0.042-0.069,0.094-0.12,0.133-0.194c-0.169,0.177-0.346,0.347-0.542,0.496l-0.152-0.143
										c0.594-0.95,1.296-1.787,1.756-2.824C117.3,125.778,117.547,124.684,117.636,123.567z"/>
									<path fill="#341A1D" d="M89.122,119.853l0.026-0.084c0.173-0.192,0.342-0.382,0.512-0.575
										c0.228-0.178,0.408-0.39,0.553-0.619c0.682-0.763,1.35-1.534,1.993-2.327c-0.057,0.275-0.102,0.565-0.137,0.866
										c-0.655,0.898-1.393,1.732-2.245,2.423c0.115-0.052,0.23-0.102,0.344-0.154c-0.442,0.439-0.905,0.855-1.363,1.276
										c-0.469,0.105-0.905,0.261-1.354,0.52c-0.8,0.463-1.593,0.721-2.417,0.824C86.682,121.387,87.878,120.423,89.122,119.853z"
										/>
									<path fill="#341A1D" d="M102.616,85.936c-0.014,0.177-0.026,0.35-0.034,0.521c0.003,0.203,0.005,0.408,0.009,0.608
										l0.077,0.037c-0.016-0.407,0.003-0.805,0.082-1.177L102.616,85.936"/>
									<polyline fill="#341A1D" points="102.603,85.487 102.78,85.723 102.791,85.746 102.919,85.385 102.881,85.37 
										102.622,85.133 102.603,85.487 									"/>
									<polyline fill="#341A1D" points="103.553,88.744 103.423,89.032 103.68,88.726 103.553,88.744 									"/>
									<path fill="#341A1D" d="M105.045,88.541l-0.006,0.016c-0.171,0.166-0.324,0.345-0.465,0.53
										c0.258-0.224,0.532-0.435,0.836-0.604L105.045,88.541"/>
									<path fill="#341A1D" d="M102.714,84.394c0.102,0.226,0.214,0.431,0.415,0.613l0.083-0.1
										c-0.123-0.237-0.245-0.473-0.37-0.709l-0.071-0.128L102.714,84.394"/>
									<path fill="#341A1D" d="M68.807,96.82c-0.197,0.032-0.248-0.273-0.052-0.307C68.952,96.481,69.004,96.787,68.807,96.82"/>
									<path fill="#341A1D" d="M122.872,115.042c-0.201-0.367-0.167-0.892-0.203-1.299c-0.038-0.36,0.506-0.454,0.553-0.093
										c0.055,0.434,0.2,0.947,0.078,1.376C123.239,115.233,122.961,115.203,122.872,115.042"/>
									<polyline fill="#341A1D" points="83.926,95.587 84.095,95.62 84.143,95.493 83.926,95.587 									"/>
									<path fill="#341A1D" d="M124.074,111.786c0.261,0.504,0.532,1.317,0.254,1.859c-0.071,0.138-0.277,0.136-0.312-0.032
										c-0.058-0.266-0.009-0.541-0.051-0.81c-0.044-0.298-0.138-0.572-0.274-0.839
										C123.57,111.724,123.95,111.545,124.074,111.786"/>
									<path fill="#341A1D" d="M104.111,82.139c-0.273-0.213-0.473-0.475-0.546-0.816c-0.032-0.148,0.189-0.212,0.253-0.077
										c0.076,0.158,0.159,0.301,0.263,0.431l0.018-0.01l0.041,0.078l0.15,0.143C104.446,82.01,104.266,82.263,104.111,82.139"/>
									<path fill="#341A1D" d="M104.692,80.986c-0.143,0.024-0.179-0.2-0.037-0.224C104.797,80.74,104.837,80.962,104.692,80.986"
										/>
									<path fill="#341A1D" d="M60.142,92.116"/>
									<path fill="#341A1D" d="M125.045,119.69c-0.907-0.955-1.675-1.912-2.165-3.146l0.119-0.075
										c0.859,0.953,1.519,2.004,2.242,3.057C125.333,119.661,125.16,119.807,125.045,119.69"/>
									<path fill="#341A1D" d="M123.998,114.063l0.134-0.021c0.511,1.168,1.061,2.271,2.129,3.033
										c0.156,0.108-0.01,0.336-0.17,0.237C124.932,116.603,123.98,115.467,123.998,114.063"/>
									<path fill="#341A1D" d="M126.105,112.723c0.222,0.315,0.372,0.691,0.547,1.039c0.085,0.169-0.188,0.293-0.269,0.123
										c-0.163-0.338-0.366-0.68-0.477-1.037L126.105,112.723"/>
									<path fill="#341A1D" d="M124.475,122.695c-0.193-0.548-0.502-1.047-0.893-1.475c-0.4-0.442-0.907-0.69-1.355-1.061
										l0.044-0.113c1.245,0.108,2.11,1.503,2.326,2.609L124.475,122.695z"/>
									<path fill="#341A1D" d="M121.743,121.603l0.081-0.15c0.442,0.006,0.835,0.385,1.141,0.675
										c0.375,0.355,0.653,0.788,0.872,1.256c0.063,0.138-0.13,0.216-0.204,0.097c-0.256-0.413-0.579-0.774-0.936-1.1
										C122.401,122.112,121.978,121.931,121.743,121.603"/>
									<path fill="#341A1D" d="M122.94,123.532c0.421,0.27,0.743,0.695,1.081,1.055c0.154,0.167-0.117,0.397-0.274,0.227
										c-0.328-0.369-0.718-0.724-0.953-1.161L122.94,123.532z"/>
									<path fill="#341A1D" d="M121.436,128.972c0.158,0.599,0.314,1.204,0.471,1.803c0.133,0.52,0.32,1.051,0.296,1.589
										l-0.16,0.027c-0.253-0.474-0.312-1.045-0.41-1.569c-0.117-0.607-0.232-1.216-0.35-1.824L121.436,128.972z"/>
									<path fill="#341A1D" d="M122.2,127.707c0.16-0.558,0.198-1.144,0.128-1.719c-0.07-0.592-0.338-1.088-0.489-1.65
										l0.101-0.066c0.951,0.81,0.848,2.448,0.382,3.475L122.2,127.707z"/>
									<path fill="#341A1D" d="M120.361,124.082l0.152-0.075c0.357,0.261,0.457,0.798,0.538,1.212
										c0.099,0.507,0.075,1.021-0.018,1.529c-0.029,0.149-0.231,0.101-0.222-0.039c0.031-0.485-0.023-0.966-0.125-1.439
										C120.602,124.878,120.362,124.485,120.361,124.082"/>
									<path fill="#341A1D" d="M119.888,126.596c0.186,0.464,0.202,0.997,0.269,1.487c0.029,0.225-0.326,0.255-0.354,0.026
										c-0.053-0.491-0.165-1.006-0.103-1.498L119.888,126.596z"/>
									<path fill="#341A1D" d="M120.403,129.921c-0.142,0.604-0.287,1.21-0.43,1.813c-0.126,0.522-0.21,1.078-0.484,1.542
										l-0.154-0.052c-0.001-0.537,0.214-1.069,0.374-1.578c0.181-0.592,0.365-1.183,0.546-1.775L120.403,129.921z"/>
									<path fill="#341A1D" d="M117.129,133.485c0.277-0.503,0.717-0.889,1.008-1.389c0.363-0.623,0.557-1.3,0.619-2.011
										c0.023-0.244,0.4-0.226,0.381,0.019c-0.088,1.211-0.632,3.036-1.89,3.515L117.129,133.485z"/>
									<path fill="#341A1D" d="M118.487,141.582l0.168-0.029c0.179,1.713-0.032,3.801-1.084,5.233l-0.109-0.059
										C118.133,144.977,118.674,143.504,118.487,141.582"/>
									<path fill="#341A1D" d="M116.18,145.492c0.087-0.533,0.426-0.999,0.593-1.518c0.227-0.696,0.292-1.417,0.239-2.145
										c-0.011-0.186,0.262-0.24,0.292-0.05c0.17,1.117,0.164,3.099-0.846,3.859C116.346,145.723,116.157,145.646,116.18,145.492"
										/>
									<path fill="#341A1D" d="M114.996,141.225c-0.042-0.197,0.255-0.24,0.304-0.052c0.288,1.047,0.288,2.567-0.617,3.323
										l-0.177-0.127c0.136-0.496,0.391-0.953,0.504-1.458C115.136,142.348,115.118,141.788,114.996,141.225"/>
									<path fill="#341A1D" d="M120.746,133.442c-0.041-0.197,0.255-0.24,0.304-0.052c0.288,1.047,0.288,2.567-0.617,3.323
										l-0.177-0.127c0.136-0.496,0.391-0.953,0.504-1.458C120.886,134.565,120.868,134.005,120.746,133.442"/>
									<path fill="#341A1D" d="M113.079,142.295l0.22,0.087c0.097-0.273,0.214-0.537,0.274-0.827
										c0.064-0.316,0.083-0.636,0.074-0.961c-0.007-0.212,0.357-0.225,0.375-0.013c0.062,0.698,0.011,1.557-0.381,2.165
										l-0.263,0.083c-0.226-0.095-0.354-0.229-0.407-0.465L113.079,142.295z"/>
									<path fill="#341A1D" d="M112.364,139.771c-0.124,0.557-0.239,1.112-0.385,1.66l-0.1-0.022
										c0.094-0.552,0.215-1.103,0.331-1.653L112.364,139.771z"/>
									<path fill="#341A1D" d="M117.357,130.161c-0.124,0.557-0.239,1.112-0.385,1.66l-0.1-0.022
										c0.094-0.552,0.215-1.103,0.331-1.653L117.357,130.161z"/>
									<path fill="#341A1D" d="M116.69,147.418l0.144,0.054c-0.342,1.096-0.901,2.114-1.763,2.882l-0.114-0.104
										C115.68,149.388,116.304,148.484,116.69,147.418"/>
									<path fill="#341A1D" d="M114.806,147.934c0.269-0.25,0.439-0.576,0.527-0.931l0.163,0.038
										c-0.097,0.691-0.615,1.584-1.413,1.585l-0.035-0.11C114.299,148.314,114.573,148.162,114.806,147.934"/>
									<path fill="#341A1D" d="M117.872,135.953c0.269-0.25,0.44-0.576,0.527-0.931l0.163,0.038
										c-0.097,0.691-0.616,1.584-1.413,1.585l-0.034-0.11C117.365,136.333,117.639,136.181,117.872,135.953"/>
									<path fill="#341A1D" d="M112.606,147.46c0.644-0.109,1.286-0.492,1.378-1.19c0.023-0.171,0.274-0.143,0.267,0.03
										c-0.028,0.836-0.808,1.635-1.668,1.389L112.606,147.46z"/>
									<path fill="#341A1D" d="M111.414,146.534c0.481,0.348,1.006-0.487,1.072-0.87c0.03-0.19-0.276-0.262-0.324-0.078
										c-0.06,0.22-0.175,0.398-0.373,0.513c-0.151,0.087-0.301,0.098-0.407,0.24L111.414,146.534"/>
									<path fill="#341A1D" d="M116.518,139.942c-0.361-0.322-0.713-0.77-0.713-1.275l0.189-0.031
										c0.219,0.384,0.354,0.761,0.695,1.068C116.828,139.828,116.659,140.071,116.518,139.942"/>
									<path fill="#341A1D" d="M99.042,151.805c-0.361-0.322-0.713-0.77-0.713-1.275l0.189-0.031
										c0.219,0.384,0.354,0.761,0.695,1.068C99.353,151.691,99.184,151.934,99.042,151.805"/>
									<path fill="#341A1D" d="M118.006,138.683l-0.168-0.305l0.177-0.11l0.238,0.254
										C118.393,138.674,118.117,138.879,118.006,138.683"/>
									<path fill="#341A1D" d="M81.338,147.057c-0.797-1.189-0.9-2.583-0.552-3.95l0.163,0.039
										c-0.283,1.33-0.035,2.611,0.482,3.85L81.338,147.057z"/>
									<path fill="#341A1D" d="M73.678,139.705c0.624,1.16,0.957,2.413,1.696,3.522l-0.117,0.1
										c-0.89-0.991-1.758-2.206-1.78-3.587L73.678,139.705z"/>
									<path fill="#341A1D" d="M75.056,140.594c0.347,0.372,0.609,0.83,0.891,1.259l-0.16,0.133
										c-0.285-0.433-0.612-0.859-0.823-1.334L75.056,140.594z"/>
									<path fill="#341A1D" d="M71.885,137.861c-0.96-1.393-1.42-3.057-1.788-4.692l0.12-0.039
										c0.512,1.589,1.254,3.084,1.773,4.664L71.885,137.861z"/>
									<path fill="#341A1D" d="M69.027,133.848l-0.108,0.006c-0.138-1.046-0.092-2.102-0.239-3.148l0.138-0.024
										C69.032,131.691,69.232,132.821,69.027,133.848"/>
									<path fill="#341A1D" d="M65.812,132.588l-0.206-0.078c-0.03-0.351,0.09-0.674,0.114-1.022
										c0.029-0.415-0.035-0.818-0.152-1.213c-0.086-0.285,0.37-0.36,0.456-0.077C66.236,130.894,66.381,132.022,65.812,132.588"
										/>
									<path fill="#341A1D" d="M73.392,138.002l-0.206-0.078c-0.03-0.351,0.09-0.674,0.114-1.022
										c0.029-0.415-0.034-0.818-0.152-1.213c-0.086-0.285,0.37-0.36,0.456-0.077C73.815,136.309,73.96,137.436,73.392,138.002"/>
									<path fill="#341A1D" d="M63.001,130.47l-0.117-0.087c-0.009-0.236,0.163-0.446,0.226-0.677
										c0.083-0.305,0.078-0.619,0.007-0.928l0.097-0.029c0.115,0.307,0.167,0.629,0.131,0.962
										C63.315,129.984,63.267,130.333,63.001,130.47"/>
									<path fill="#341A1D" d="M72.416,132.682l-0.117-0.087c-0.009-0.236,0.163-0.446,0.226-0.677
										c0.083-0.305,0.078-0.619,0.007-0.928l0.097-0.029c0.115,0.307,0.167,0.629,0.131,0.962
										C72.73,132.197,72.683,132.545,72.416,132.682"/>
									<path fill="#341A1D" d="M67.011,132.927c-0.207,0.926-0.002,1.781-0.016,2.705l-0.199,0.061
										c-0.562-0.833-0.365-1.939-0.029-2.825L67.011,132.927z"/>
									<path fill="#341A1D" d="M63.976,133.242c-0.121-0.521-0.051-1.096-0.045-1.628c0.001-0.198,0.314-0.171,0.307,0.032
										c-0.014,0.528,0.029,1.098-0.114,1.611L63.976,133.242z"/>
									<path fill="#341A1D" d="M71.894,135.106c-0.121-0.521-0.051-1.097-0.045-1.628c0.001-0.198,0.314-0.171,0.307,0.032
										c-0.014,0.528,0.029,1.098-0.114,1.611L71.894,135.106z"/>
									<path fill="#341A1D" d="M64.278,126.831c0.071,0.813,0.011,1.579-0.352,2.318l-0.109-0.025
										c0.127-0.739,0.231-1.496,0.169-2.243C63.971,126.692,64.261,126.639,64.278,126.831"/>
									<path fill="#341A1D" d="M62.627,122.121c-0.015,0.901,0.011,1.811-0.112,2.704c-0.023,0.163-0.285,0.189-0.303,0.009
										c-0.089-0.915-0.025-1.839-0.005-2.757C62.213,121.806,62.631,121.852,62.627,122.121"/>
									<path fill="#341A1D" d="M61.489,125.6c-0.206-1.294-0.357-2.591-0.517-3.89l0.207-0.036
										c0.158,1.302,0.329,2.599,0.436,3.905L61.489,125.6z"/>
									<path fill="#341A1D" d="M62.186,129.249c-0.147-0.565-0.17-1.134-0.216-1.713c-0.016-0.232,0.345-0.292,0.361-0.06
										c0.039,0.595,0.094,1.171,0.025,1.766L62.186,129.249z"/>
									<path fill="#341A1D" d="M61.905,123.299c-0.143-0.938-0.159-1.872-0.266-2.814l0.111-0.017
										c0.24,0.957,0.411,1.839,0.293,2.827L61.905,123.299z"/>
									<path fill="#341A1D" d="M74.47,135.647c-0.143-0.938-0.159-1.872-0.266-2.814l0.111-0.017
										c0.24,0.957,0.411,1.839,0.293,2.827L74.47,135.647z"/>
									<path fill="#341A1D" d="M94.992,150.834c-0.143-0.938-0.159-1.872-0.266-2.814l0.11-0.017
										c0.24,0.957,0.411,1.839,0.293,2.827L94.992,150.834z"/>
									<path fill="#341A1D" d="M54.736,119.823l0.024,0.138L54.736,119.823z"/>
									<path fill="#341A1D" d="M85.099,141.134c0.983,0.155,1.898,0.629,2.777,1.079c0.166,0.086,0.081,0.337-0.103,0.275
										c-0.941-0.307-1.925-0.622-2.727-1.213L85.099,141.134z"/>
									<path fill="#341A1D" d="M84.145,142.596c0.566-0.001,1.086,0.231,1.48,0.622c0.156,0.156-0.097,0.433-0.262,0.288
										c-0.362-0.308-0.787-0.444-1.261-0.41c-0.338,0.024-0.681,0.24-1.017,0.204l-0.077-0.093
										C83.098,142.743,83.747,142.596,84.145,142.596"/>
									<path fill="#341A1D" d="M83.691,144.345c0.326-0.013,0.627,0.079,0.902,0.259c0.237,0.155-0.014,0.488-0.255,0.353
										c-0.351-0.198-0.691-0.123-1.064-0.042c-0.156,0.036-0.361,0.012-0.308-0.2C83.031,144.457,83.471,144.356,83.691,144.345"
										/>
									<path fill="#341A1D" d="M83.389,147.423c0.12-0.312,0.277-0.602,0.427-0.901c0.113-0.227,0.44-0.053,0.308,0.163
										c-0.177,0.283-0.348,0.572-0.549,0.835L83.389,147.423z"/>
									<path fill="#341A1D" d="M86.939,152.801l0.108-0.113c-1.252-0.904-1.935-2.163-1.97-3.759l0.177-0.006
										c0.329,1.423,1.161,2.844,2.284,3.782l-0.153,0.219l-0.246-0.171c0.698,0.873,1.275,1.737,2.23,2.377
										c1.022,0.679,2.193,1.011,3.413,1.023l0.002,0.096C90.547,156.355,87.609,155.143,86.939,152.801"/>
									<path fill="#341A1D" d="M91.036,153.918c-1.614-1.022-2.726-2.315-3.476-4.059l0.2-0.13
										c0.976,1.414,2.184,2.774,3.493,3.877C91.445,153.764,91.244,154.047,91.036,153.918"/>
									<path fill="#341A1D" d="M89.034,147.597c0.701,1.018,1.471,2.068,2.403,2.887l-0.138,0.192
										c-1.146-0.75-2.002-1.657-2.439-2.967L89.034,147.597z"/>
									<polygon fill="#341A1D" points="91.107,144.666 91.168,144.975 91.044,144.997 90.999,144.684 									"/>
									<path fill="#341A1D" d="M87.251,146.679c-0.231-1.185-0.008-2.262,0.528-3.342c0.087-0.174,0.368-0.078,0.289,0.109
										c-0.434,1.01-0.59,2.132-0.593,3.228L87.251,146.679z"/>
									<path fill="#341A1D" d="M91.734,145.925c0.053,0.648,0.25,1.25,0.601,1.798l-0.06,0.038
										c-0.366-0.553-0.588-1.16-0.651-1.82L91.734,145.925z"/>
									<path fill="#341A1D" d="M75.702,137.845c0.053,0.648,0.25,1.25,0.601,1.798l-0.06,0.038
										c-0.366-0.553-0.588-1.16-0.651-1.82L75.702,137.845z"/>
									<path fill="#341A1D" d="M93.805,150.815c0.053,0.648,0.25,1.25,0.601,1.798l-0.06,0.038
										c-0.366-0.553-0.588-1.16-0.651-1.82L93.805,150.815z"/>
									<path fill="#341A1D" d="M96.287,145.588c0.101,0.845,0.365,1.636,0.533,2.464l-0.144,0.046
										c-0.402-0.761-0.494-1.638-0.527-2.485L96.287,145.588z"/>
									<path fill="#341A1D" d="M75.749,134.18c0.101,0.844,0.365,1.636,0.533,2.463l-0.144,0.046
										c-0.401-0.761-0.494-1.638-0.527-2.485L75.749,134.18z"/>
									<path fill="#341A1D" d="M110.028,142.686c0.201-0.961,0.453-1.751,0.263-2.746l0.153-0.024
										c0.228,0.896,0.272,2.03-0.301,2.813L110.028,142.686z"/>
									<path fill="#341A1D" d="M115.183,136.047c0.201-0.961,0.453-1.751,0.263-2.746l0.153-0.024
										c0.228,0.896,0.272,2.029-0.301,2.813L115.183,136.047z"/>
									<path fill="#341A1D" d="M108.431,139.898c0.306,0.975,0.021,2.344-1.017,2.756l-0.121-0.19
										c0.669-0.699,1.126-1.48,0.846-2.475C108.096,139.822,108.378,139.735,108.431,139.898"/>
									<path fill="#341A1D" d="M110.16,153.608c1.098-0.32,1.988-1.1,2.409-2.169l0.129,0.049c-0.428,1.13-1.338,1.959-2.519,2.23
										L110.16,153.608z"/>
									<path fill="#341A1D" d="M110.321,151.013l0.1,0.119c-0.287,0.199-0.577,0.403-0.863,0.602l-0.073-0.086
										C109.763,151.438,110.044,151.224,110.321,151.013"/>
									<path fill="#341A1D" d="M108.397,148.441c0.141-0.174,0.389,0.054,0.226,0.207c-0.191,0.178-0.38,0.354-0.568,0.536
										l-0.143-0.135C108.075,148.849,108.236,148.644,108.397,148.441"/>
									<path fill="#341A1D" d="M113.585,136.68c0.199,0.808-0.128,2.166-1.103,2.331l-0.07-0.108
										c0.251-0.292,0.563-0.499,0.758-0.844c0.242-0.422,0.358-0.876,0.306-1.36L113.585,136.68z"/>
									<path fill="#341A1D" d="M120.33,139.253c-0.045,0.385-0.06,0.79-0.221,1.149l-0.173-0.016
										c-0.066-0.389,0.021-0.779,0.075-1.168C120.039,139.015,120.355,139.045,120.33,139.253"/>
									<path fill="#341A1D" d="M122.422,131.156c-0.045,0.385-0.06,0.79-0.221,1.149l-0.173-0.016
										c-0.065-0.389,0.021-0.779,0.075-1.168C122.131,130.918,122.446,130.948,122.422,131.156"/>
									<path fill="#341A1D" d="M82.976,129.895l0.147-0.046c0.603,1.27,1.178,2.447,2.115,3.518l-0.067,0.073
										C84.013,132.649,83.064,131.336,82.976,129.895"/>
									<path fill="#987A7E" d="M56.835,106.511l0.002,0.013L56.835,106.511z"/>
									<path fill="#D5C3C4" d="M125.204,107.109c0.008-0.001,0.015-0.005,0.021-0.005
										C125.219,107.104,125.212,107.107,125.204,107.109"/>
									<path fill="#D5C3C4" d="M128.944,103.916c-0.23,0.05-0.428,0.243-0.375,0.548
										C128.516,104.159,128.714,103.965,128.944,103.916"/>
									<path fill="#D5C3C4" d="M122.616,78.404l0.003,0.005l0.003,0.066l-0.002-0.001
										C122.619,78.449,122.618,78.427,122.616,78.404"/>
									<path fill="#D5C3C4" d="M122.522,76.805c0.001,0,0.003,0,0.003,0.001l0.014,0.369c0,0,0-0.001-0.002,0
										C122.53,77.053,122.526,76.928,122.522,76.805"/>
									<path fill="#D5C3C4" d="M123.469,75.55c0.017,0.06,0.027,0.12,0.025,0.184l-0.032-0.176
										C123.465,75.556,123.467,75.551,123.469,75.55"/>
									<path fill="#67473C" d="M122.544,78.388l0.071,0.016c0.002,0.023,0.003,0.045,0.005,0.069L122.544,78.388"/>
									<path fill="#351C1E" d="M98.339,85.86c0.524-0.089,1.07-0.076,1.592-0.015l-0.016,0.127
										c-0.551-0.049-1.063-0.001-1.581,0.086c-0.303,0.052-0.601,0.113-0.909,0.178l-0.024-0.082
										C97.697,86.007,98.014,85.915,98.339,85.86"/>
									<path fill="#351C1E" d="M123.856,109.912c0.032-0.006,0.062-0.007,0.097,0.002c0.025,0.006,0.051,0.014,0.078,0.029
										c0.396,0.228,0.697,0.591,0.844,1.023l0.009,0.026c0.036,0.115,0.07,0.249,0.085,0.384
										c-0.419-0.404-0.865-0.782-1.335-1.13C123.581,110.11,123.698,109.94,123.856,109.912"/>
									<path fill="#351C1E" d="M98.612,87.031c0.096-0.018,0.145,0.049,0.154,0.123c0.01,0.074-0.021,0.156-0.1,0.169
										c-0.015,0.003-0.031,0.001-0.05-0.001l-0.246-0.047l-0.025-0.15l0.224-0.085C98.583,87.037,98.596,87.032,98.612,87.031"/>
									<polyline fill="#351C1E" points="122.616,78.404 122.544,78.388 122.62,78.474 122.622,78.474 122.618,78.406 
										122.616,78.404 									"/>
									<path fill="#BC8878" d="M79.536,92.438c-3.649,0.612-7.283,1.383-10.877,2.239C72.253,93.821,75.887,93.05,79.536,92.438"
										/>
									<polyline fill="#BC8878" points="91.281,91.219 91.298,91.216 91.281,91.219 									"/>
									<polyline fill="#BC8878" points="65.525,93.186 65.527,93.186 65.525,93.186 									"/>
									<path fill="#BC8878" d="M91.925,91.063c-0.2,0.067-0.407,0.117-0.619,0.152C91.517,91.18,91.725,91.13,91.925,91.063"/>
									<path fill="#BC8878" d="M88.895,91.322c0.163-0.006,0.331-0.008,0.498-0.01C89.226,91.314,89.058,91.316,88.895,91.322"/>
									<path fill="#BC8878" d="M88.683,91.332c0.048-0.006,0.094-0.007,0.143-0.005C88.778,91.325,88.731,91.326,88.683,91.332"/>
									<polyline fill="#BC8878" points="79.536,92.438 79.542,92.437 79.536,92.438 									"/>
									<polyline fill="#BC8878" points="92.174,89.956 92.188,89.955 92.174,89.956 									"/>
									<path fill="#BC8878" d="M91.923,89.74c0.009,0.025,0.018,0.046,0.025,0.069c0.006,0.013,0.011,0.024,0.016,0.036
										c-0.005-0.011-0.01-0.023-0.016-0.036C91.942,89.786,91.932,89.765,91.923,89.74"/>
									<path fill="#BC8878" d="M92.429,89.655v0.006c0.009,0.146-0.106,0.266-0.228,0.292c0.122-0.026,0.237-0.146,0.228-0.292
										V89.655"/>
									<polyline fill="#A76955" points="65.274,93.194 65.279,93.195 65.274,93.194 									"/>
									<polyline fill="#A76955" points="87.457,87.623 87.466,87.622 87.457,87.623 									"/>
									<path fill="#A76955" d="M87.19,87.58L87.19,87.58c0.011,0.005,0.026,0.015,0.041,0.017
										C87.216,87.595,87.201,87.585,87.19,87.58"/>
									<path fill="#A76955" d="M87.783,87.166c0.085,0.215-0.074,0.395-0.274,0.449C87.71,87.561,87.869,87.381,87.783,87.166"/>
									<path fill="#A76955" d="M81.939,87.347c-0.78,0.131-1.514,0.285-2.115,0.403C80.424,87.632,81.159,87.478,81.939,87.347"/>
									<polyline fill="#A76955" points="81.946,87.347 81.989,87.339 81.946,87.347 									"/>
									<path fill="#361C1E" d="M81.405,86.905l-0.007,0.001c-0.75,0.251-1.452,0.518-2.027,0.725
										c-0.078,0.029-0.151,0.056-0.223,0.082c-2.442,0.88-4.807,2.048-7.007,3.431c-1.816,1.148-3.552,2.491-4.894,4.186
										c-0.467,0.583-1.36,1.61-1.2,2.084c0.026,0.076,0.077,0.138,0.16,0.179c0.005,0.003,0.005,0.003,0.007,0.001
										c0.035,0.01,0.119-0.006,0.242-0.047h0.003c0.725-0.243,2.742-1.252,2.956-1.339c3.422-1.407,6.89-2.726,10.399-3.9
										l0.007-0.001c0.895-0.3,1.795-0.589,2.697-0.869c2.032-0.628,4.079-1.193,6.162-1.64c0.046-0.009,0.092-0.023,0.14-0.032
										c0.021-0.001,0.044-0.008,0.069-0.012c0.159-0.031,0.322-0.059,0.49-0.089c0.617-0.098,1.261-0.189,1.85-0.383l0.018-0.006
										l0.007-0.002c0.201-0.068,0.398-0.148,0.585-0.246c0.368-0.193,0.64-0.428,0.842-0.69c0.032-0.416,0.051-0.838,0.054-1.256
										c-0.238-0.267-0.381-0.636-0.573-0.941c-0.299-0.486-0.623-0.954-0.961-1.414c-0.166,0.09-0.349,0.205-0.546,0.338
										c0.558,0.638,1.112,1.378,1.376,2.178c0.033,0.105,0.063,0.208,0.089,0.315l0.001,0.006
										c0.035,0.15-0.061,0.278-0.181,0.324c-0.002,0.003-0.005,0.005-0.009,0.007c-0.005,0-0.009,0.002-0.014,0.002
										c-0.078,0.022-0.163,0.001-0.224-0.079c-0.007-0.011-0.013-0.018-0.019-0.032c-0.014-0.021-0.025-0.044-0.039-0.064
										c-0.469-0.805-0.826-1.627-1.36-2.384l-0.137,0.094l-0.287,0.078l-0.15,0.201c-0.481,0.159-0.98,0.063-1.475,0.034
										c-0.467-0.032-1.027-0.039-1.399-0.365c0.068,0.103,0.152,0.228,0.282,0.389c0.014,0.015,0.028,0.032,0.037,0.051
										c0.116,0.2-0.013,0.403-0.201,0.487c-0.016,0.006-0.03,0.009-0.044,0.014l-0.007,0.002
										c-0.074,0.024-0.151,0.03-0.228,0.009c-0.015-0.001-0.03-0.008-0.044-0.012c-1.313-0.531-3.383-0.028-5.175,0.57
										L81.405,86.905"/>
									<path fill="#A76955" d="M93.343,87.411c-0.002,0.007-0.002,0.014-0.003,0.021C93.341,87.425,93.341,87.418,93.343,87.411
										 M92.51,86.566c-0.088,0.017-0.18,0.033-0.279,0.064C92.33,86.6,92.422,86.584,92.51,86.566 M92.515,86.566l0.018-0.003
										L92.515,86.566"/>
									<path fill="#A76955" d="M102.623,85.132l-0.018,0.356l0.177,0.236l0.01,0.023l0.125-0.358l-0.036-0.021L102.623,85.132
										 M102.768,84.072l-0.053,0.322c0.102,0.226,0.214,0.431,0.412,0.614l0.087-0.102c-0.124-0.234-0.248-0.472-0.374-0.708
										L102.768,84.072"/>
									<path fill="#BC8878" d="M102.614,87.08l0.051-0.009c0,0.01,0.001,0.019,0.001,0.031L102.614,87.08"/>
									<path fill="#A76955" d="M102.616,85.936l0.134-0.009c-0.075,0.358-0.099,0.747-0.085,1.143l-0.05,0.008l-0.027-0.009
										c-0.002-0.205-0.005-0.407-0.005-0.611C102.589,86.286,102.604,86.112,102.616,85.936"/>
									<path fill="#BC8878" d="M105.047,88.541l-0.007,0.017c-0.17,0.165-0.324,0.344-0.467,0.53
										c0.26-0.227,0.533-0.436,0.839-0.605L105.047,88.541 M103.552,88.744l-0.127,0.291l0.253-0.309L103.552,88.744"/>
									<path fill="#351C1E" d="M104.575,89.087c0.258-0.226,0.532-0.435,0.836-0.603l-0.366,0.056l-0.006,0.016
										C104.868,88.723,104.715,88.902,104.575,89.087"/>
									<polyline fill="#351C1E" points="103.423,89.032 103.68,88.726 103.553,88.744 103.423,89.032 									"/>
									<path fill="#351C1E" d="M102.665,87.07c-0.012-0.397,0.01-0.786,0.085-1.146l-0.134,0.012
										c-0.014,0.177-0.026,0.35-0.034,0.521c0.003,0.203,0.003,0.406,0.007,0.611l0.025,0.011l0.052,0.022
										C102.666,87.092,102.665,87.081,102.665,87.07"/>
									<polyline fill="#351C1E" points="102.791,85.747 102.919,85.386 102.88,85.365 102.622,85.133 102.603,85.487 
										102.78,85.723 102.791,85.747 									"/>
									<path fill="#351C1E" d="M103.13,85.006l0.083-0.099c-0.123-0.236-0.245-0.473-0.37-0.709l-0.071-0.128l-0.056,0.323
										C102.817,84.619,102.928,84.826,103.13,85.006"/>
									<path fill="#351C1E" d="M68.757,96.516c0.196-0.033,0.247,0.27,0.051,0.304C68.611,96.853,68.56,96.55,68.757,96.516"/>
									<polyline fill="#351C1E" points="84.095,95.62 84.144,95.494 83.924,95.586 84.095,95.62 									"/>
									<path fill="#351C1E" d="M103.674,81.174c0.055-0.008,0.115,0.013,0.144,0.072c0.076,0.158,0.159,0.301,0.263,0.431
										l0.018-0.01l0.043,0.082l0.148,0.139c0.119,0.094,0.043,0.263-0.07,0.282c-0.037,0.006-0.071-0.002-0.109-0.031
										c-0.273-0.213-0.473-0.475-0.546-0.816C103.546,81.242,103.606,81.185,103.674,81.174"/>
									<path fill="#351C1E" d="M104.655,80.762c0.142-0.022,0.182,0.2,0.037,0.224C104.549,81.01,104.513,80.786,104.655,80.762"
										/>
									<path fill="#361C1E" d="M84.905,90.03c0.25-0.082,0.25-0.557-0.052-0.583c-0.303-0.026-0.597-0.086-0.879-0.211
										l-0.415-0.213l-0.393-0.133c-0.051-0.017-0.094-0.017-0.134-0.006c-0.101,0.035-0.159,0.147-0.094,0.263
										c0.103,0.18,0.146,0.285,0.319,0.411c0.153,0.107,0.311,0.186,0.484,0.258c0.345,0.136,0.697,0.206,1.065,0.228
										C84.844,90.047,84.875,90.044,84.905,90.03"/>
									<path fill="#361C1E" d="M87.266,89.611c0.214-0.07,0.313-0.404,0.05-0.523c-0.667-0.303-1.346-0.565-2.044-0.784
										c-0.632-0.196-1.299-0.428-1.961-0.3c-0.008,0.004-0.017,0.005-0.024,0.006c-0.154,0.053-0.117,0.276-0.002,0.346
										c0.519,0.321,1.169,0.382,1.751,0.54c0.69,0.19,1.362,0.429,2.023,0.706C87.132,89.635,87.203,89.633,87.266,89.611"/>
									<path fill="#361C1E" d="M89.5,88.819l0.124-0.247c-1.881-0.9-4-1.758-6.098-1.939c-0.038-0.005-0.076,0-0.108,0.013
										c-0.196,0.063-0.227,0.358,0.015,0.428C85.472,87.656,87.507,88.057,89.5,88.819"/>
									<g>
										<g>
											<path fill="#341A1D" d="M73.228,100.491c3.544-2.426,9.737-5.236,13.964-3.196c-0.135-0.563-0.271-1.127-0.406-1.69
												c-4.783,0.615-9.601,1.601-13.334,4.861c-0.373,0.326,0.256,1.938,0.667,1.579c3.675-3.208,8.473-4.142,13.172-4.746
												c0.542-0.07-0.099-1.542-0.406-1.69c-4.32-2.084-10.559,0.722-14.162,3.189C72.242,99.127,72.916,100.704,73.228,100.491
												L73.228,100.491z"/>
										</g>
									</g>
									<g>
										<path fill="#341A1D" d="M112.705,129.339c0,0-0.064,0.094-0.183,0.269c-0.123,0.17-0.316,0.432-0.61,0.713
											c-0.578,0.557-1.608,1.275-3.064,1.516c-0.36,0.066-0.743,0.1-1.141,0.104c-0.407,0.01-0.812-0.052-1.18-0.083
											c-0.761-0.076-1.557-0.144-2.346-0.192c-0.391-0.018-0.777-0.017-1.129,0.021c-0.353,0.041-0.654,0.13-1.005,0.26
											c-0.716,0.28-1.506,0.73-2.407,1.087c-0.376,0.166-0.953,0.316-1.403,0.43c-0.469,0.109-0.937,0.197-1.403,0.253
											c-0.931,0.129-1.854,0.128-2.735,0.066c-0.884-0.037-1.725-0.211-2.509-0.391c-0.782-0.201-1.504-0.452-2.141-0.748
											c-0.643-0.282-1.197-0.614-1.664-0.932c-0.227-0.168-0.439-0.325-0.636-0.471c-0.18-0.165-0.345-0.317-0.494-0.454
											c-0.306-0.258-0.481-0.535-0.624-0.689c-0.135-0.163-0.206-0.25-0.206-0.25s0.097,0.059,0.279,0.169
											c0.186,0.104,0.434,0.281,0.787,0.447c0.338,0.187,0.767,0.371,1.256,0.569c0.497,0.184,1.061,0.364,1.684,0.521
											c0.624,0.153,1.311,0.262,2.033,0.363c0.729,0.064,1.495,0.115,2.287,0.1c0.792,0.004,1.602-0.101,2.411-0.214
											c0.406-0.059,0.806-0.146,1.201-0.249c0.405-0.12,0.699-0.19,1.144-0.375c0.77-0.274,1.547-0.698,2.476-1.04
											c0.472-0.178,1.029-0.286,1.537-0.299c0.508-0.015,0.975,0.026,1.417,0.08c0.879,0.103,1.681,0.301,2.433,0.471
											c0.769,0.182,1.338,0.308,1.977,0.307c1.232,0.019,2.26-0.345,2.933-0.696
											C112.352,129.643,112.705,129.339,112.705,129.339z"/>
									</g>
									<path fill="#341A1D" d="M78.741,141.307c0.128-0.545,0.259-1.093,0.388-1.637c0.114-0.471,0.19-0.973,0.437-1.392
										l0.139,0.047c0.001,0.485-0.194,0.965-0.338,1.425c-0.164,0.534-0.329,1.068-0.493,1.602L78.741,141.307z"/>
									<path fill="#341A1D" d="M81.697,138.09c-0.25,0.454-0.647,0.803-0.91,1.254c-0.328,0.562-0.503,1.174-0.559,1.815
										c-0.021,0.221-0.361,0.204-0.344-0.017c0.079-1.093,0.57-2.741,1.707-3.173L81.697,138.09z"/>
									<path fill="#341A1D" d="M78.432,138.128c0.037,0.178-0.231,0.217-0.274,0.047c-0.26-0.945-0.26-2.317,0.557-3l0.16,0.114
										c-0.122,0.448-0.353,0.86-0.455,1.316C78.306,137.115,78.322,137.621,78.432,138.128"/>
									<path fill="#341A1D" d="M81.491,141.09c0.112-0.503,0.216-1.003,0.348-1.499l0.09,0.02
										c-0.085,0.498-0.194,0.996-0.299,1.493L81.491,141.09z"/>
									<path fill="#341A1D" d="M81.027,135.861c-0.243,0.225-0.397,0.52-0.476,0.84l-0.148-0.034
										c0.087-0.624,0.556-1.43,1.275-1.431l0.031,0.1C81.484,135.518,81.237,135.655,81.027,135.861"/>
									<path fill="#341A1D" d="M83.454,135.777c-0.182,0.867-0.409,1.581-0.238,2.479l-0.138,0.022
										c-0.206-0.809-0.245-1.832,0.272-2.54L83.454,135.777z"/>
									<path fill="#341A1D" d="M76.919,140.192c0.041-0.348,0.054-0.714,0.199-1.038l0.156,0.014
										c0.059,0.351-0.019,0.703-0.067,1.054C77.182,140.407,76.897,140.38,76.919,140.192"/>
									<path fill="#341A1D" d="M89.273,143.989c-0.014-0.201-0.311-0.162-0.306,0.033c0.008,1.086,0.422,2.548,1.498,3.03
										l0.136-0.17c-0.266-0.44-0.636-0.81-0.882-1.265C89.445,145.107,89.309,144.563,89.273,143.989"/>
									<path fill="#341A1D" d="M90.232,141.873c0.271,0.502,0.533,1.004,0.823,1.493l0.09-0.048
										c-0.241-0.506-0.507-1.003-0.769-1.501L90.232,141.873z"/>
									<path fill="#341A1D" d="M85.071,139.699c-0.327-0.167-0.58-0.435-0.76-0.752l-0.147,0.081
										c0.281,0.639,1.024,1.357,1.791,1.141l0.003-0.116C85.662,139.927,85.357,139.855,85.071,139.699"/>
									<path fill="#341A1D" d="M96.715,154.48c-0.327-0.167-0.58-0.435-0.76-0.752l-0.147,0.081
										c0.281,0.639,1.024,1.357,1.791,1.141l0.003-0.116C97.306,154.708,97.001,154.636,96.715,154.48"/>
									<path fill="#341A1D" d="M84.507,142.363l0.079-0.339l-0.201-0.058l-0.16,0.309
										C84.133,142.459,84.454,142.581,84.507,142.363"/>
									<path fill="#341A1D" d="M93.273,144.042c-0.455-0.87-0.913-1.562-1.001-2.571l-0.154,0.018
										c0.025,0.924,0.291,2.027,1.056,2.625L93.273,144.042z"/>
									<path fill="#341A1D" d="M86.506,139.057c-0.455-0.87-0.913-1.561-1.001-2.571l-0.154,0.018
										c0.025,0.924,0.291,2.027,1.056,2.625L86.506,139.057z"/>
									<path fill="#341A1D" d="M94.051,140.925c-0.029,1.021,0.618,2.261,1.729,2.375l0.064-0.216
										c-0.834-0.491-1.487-1.117-1.488-2.151C94.354,140.76,94.057,140.753,94.051,140.925"/>
									<path fill="#341A1D" d="M88.216,139.231c0.028,0.831,0.713,2.05,1.696,1.943l0.038-0.123
										c-0.321-0.213-0.677-0.327-0.959-0.606c-0.347-0.34-0.583-0.745-0.665-1.225L88.216,139.231z"/>
									<g>
										<path fill="#361C1E" d="M118.292,82.172c-1.515-3.312-6.369-5.335-9.633-2.68c-0.287,0.234-1.049,1.296-1.524,1.366
											c-0.969,0.151-2.076,1.498-2.902,1.888l-0.016-0.096c-0.17-0.273-0.338-0.549-0.509-0.82
											c-0.14-0.223-0.255-0.488-0.484-0.635l-0.197,0.123c0.037,0.269,0.228,0.487,0.375,0.708
											c0.177,0.267,0.356,0.535,0.532,0.801l0.044,0.045c-0.14,0.078-0.255,0.17-0.37,0.268c-0.1-0.211-0.2-0.423-0.299-0.634
											c-0.076-0.165-0.14-0.358-0.253-0.511l0.025-0.093l-0.223-0.084l-0.076-0.007c0-0.143,0.007-0.285,0-0.427l-0.135-0.032
											c-0.404,0.96-0.473,2.047-0.397,3.111c-0.097,0.872-0.051,1.712,0.147,2.551l-0.159,0.063
											c0.075,0.279,0.161,0.549,0.24,0.825c0.976-0.26,1.955-0.485,2.934-0.707c3.843-1.691,6.061-8.25,12.461-1.976
											C118.983,86.307,118.907,83.515,118.292,82.172z"/>
										<path fill="#341A1D" d="M104.268,81.767c-0.273-0.213-0.473-0.475-0.546-0.816c-0.032-0.148,0.189-0.212,0.253-0.077
											c0.076,0.158,0.159,0.301,0.263,0.431l0.019-0.01l0.041,0.078l0.15,0.143C104.603,81.638,104.424,81.891,104.268,81.767"
											/>
										<path fill="#341A1D" d="M104.85,80.614c-0.143,0.024-0.179-0.2-0.037-0.224C104.954,80.368,104.995,80.59,104.85,80.614"
											/>
										<path fill="#351C1E" d="M103.831,80.801c0.055-0.008,0.115,0.013,0.144,0.072c0.076,0.158,0.159,0.301,0.263,0.431
											l0.019-0.01l0.042,0.082l0.148,0.139c0.119,0.094,0.043,0.263-0.07,0.282c-0.037,0.006-0.071-0.002-0.109-0.031
											c-0.273-0.213-0.473-0.475-0.546-0.816C103.704,80.869,103.763,80.813,103.831,80.801"/>
										<path fill="#351C1E" d="M104.813,80.389c0.142-0.022,0.182,0.2,0.037,0.224C104.707,80.638,104.67,80.414,104.813,80.389"
											/>
									</g>
									<g>
										<path fill="#361C1E" d="M48.489,100.609l-0.883-2.931C47.776,98.672,48.117,99.606,48.489,100.609z"/>
										<path fill="#361C1E" d="M59.466,103.872c-0.29-4.235-0.457-7.076-1.21-10.231c0.018-0.147,0.024-0.297,0.029-0.448
											c-6.081,4.66-9.528,7.674-9.661,7.791c0.517,1.41,1.048,2.988,1.194,5.112l0.842,3.056
											c-0.357,7.212,3.986,14.875,8.651,14.293c0.028,0.192,0.069,0.382,0.104,0.573c0.248-0.472,0.783-0.69,1.334-0.657
											c-0.247-1.078-0.461-2.171-0.613-3.297c1.007-0.004,1.651-0.901,1.308-1.561c0.193-0.078,0.391-0.158,0.585-0.236
											c0.234-0.095,0.346-0.369,0.316-0.603c-0.324-2.407-0.568-4.862-1.037-7.251
											C60.864,108.116,59.632,106.258,59.466,103.872z M58.931,119.894c0.06,1.012,0.099-0.069-0.066,1.171
											c-0.075,0.083,0.064,0.362,0.265,0.681c-0.011-0.024-0.025-0.053-0.023-0.063l0.04-0.327
											c-0.001,0.154,0.023,0.304,0.027,0.458c0.042,0.064,0.082,0.127,0.126,0.193c0,0.008,0.001,0.016,0.002,0.024
											c-0.052-0.075-0.094-0.141-0.127-0.197c0.01,0.315,0.025,0.629,0.056,0.942c-2.152-0.14-5.009-1.397-6.668-8.782
											c-0.305-1.356-1.349-4.017-0.767-5.264c0.91-0.874-2.898-7.462-1.99-8.336c1.312,0.317,0.324-1.421,0.853-0.317
											c0.505,0.748,4.802,3.545,5.175,4.363l1.631,4.29c0.463,1.377,0.421,4.897,0.814,6.34
											c0.391,1.454,0.074,3.236,1.369,4.364C59.601,119.586,58.676,119.74,58.931,119.894z M59.679,122.553
											c0.001-0.004,0.002-0.011,0.003-0.015c0.143,0.193,0.263,0.349,0.308,0.413C60.029,123.006,59.871,122.807,59.679,122.553
											z"/>
										<path fill="#361C1E" d="M117.705,67.694c-1.726-2.268-3.748-5.675-6.048-7.752c-1.936,0.952-3.839,1.917-5.713,2.89
											c1.684,0.925,3.277,2,4.752,3.083c2.753,2.022,5.711,7.202,8.023,9.813c0.007,0.023,0.015,0.046,0.022,0.069
											c0.597,0.088,1.168,0.559,1.4,1.124c0.043,0.106,0.09,0.21,0.134,0.315c0.02,0.041,0.036,0.081,0.052,0.121
											c0.163,0.387,0.332,0.772,0.501,1.156c-0.098-0.319-0.195-0.638-0.29-0.954c-0.086-0.289-0.189-0.59-0.265-0.87
											l-0.189-0.243l0.224-0.021c0.68,0.434,1.528,0.738,2.054,1.32c-0.486-0.146-0.962-0.314-1.438-0.523
											c-0.222-0.1-0.422,0.142-0.387,0.336c0.012,0.065,0.048,0.124,0.12,0.165c0.373,0.214,1.343,0.677,1.427,1.105
											c0.099,0.529-0.313,0.192-0.812,0.054l-0.246,0.073c0.156,0.349,0.311,0.697,0.467,1.045
											c0.285,0.384,0.542,0.784,0.739,1.243c0.124,0.282,0.541,0.082,0.435-0.2c-0.195-0.51-0.435-0.957-0.725-1.378
											c0.265,0.068,0.533,0.117,0.808,0.107c0.064,0.58,0.15,1.157,0.232,1.736c0.367,2.564-0.159,2.469,0.367,2.564
											C124.969,75.55,121.241,72.341,117.705,67.694z M121.562,76.611c0.322,0.065,0.642,0.128,0.964,0.195l0.014,0.371
											C122.243,76.951,121.908,76.779,121.562,76.611z"/>
									</g>
								</g>
							</g>
							<path fill="#341A1D" d="M103.68,88.726l0.253,2.025c0,0,0.283-0.101,0.485,1.05c0.203,1.151,2.541,6.289,4.702,13.97
								c2.161,7.681,3.142,10.209,2.698,11.565c-0.444,1.357-3.687,5.422-6.408,5.161c-2.72-0.261-4.612-1.175-5.957-1.496
								c-1.345-0.321-3.679-0.111-4.457,0c-0.778,0.111-2.61-1.625-1.561-4.754c1.049-3.129,3.322-3.652,4.225-3.056
								c0.903,0.596,1.17,0.642,0.418,0.552c-0.959-0.115-1.25-0.549-2.765,0.777c-1.728,1.512-1.236,4.173-0.607,5.215
								c0.628,1.041,2.986-0.326,5.322,0.5c2.336,0.826,5.142,1.43,6.322,1.214s4.191-3.189,4.404-4.953
								c0.171-1.418-1.441-5.946-2.608-10.67c-1.167-4.724-5.802-16.794-5.802-16.794L103.68,88.726z"/>
						</g>
						<path fill="none" stroke="#341A1D" stroke-width="0.5269" stroke-miterlimit="10" d="M118.314,91.492
							c0,0-7.846-6.053-13.583,3.05l0.922,1.527c0,0,1.973-0.742,3.945-0.836C112.488,95.095,114.449,95.493,118.314,91.492z"/>
						<g>
							<defs>
								<path id="SVGID_1_" d="M118.314,91.492c0,0-7.846-6.053-13.583,3.05l0.922,1.527c0,0,1.973-0.742,3.945-0.836
									C112.488,95.095,114.449,95.493,118.314,91.492z"/>
							</defs>
							<clipPath id="SVGID_2_">
								<use xlink:href="#SVGID_1_"  overflow="visible"/>
							</clipPath>
							<circle clip-path="url(#SVGID_2_)" fill="#361C1E" cx="111.224" cy="92.507" r="3.225"/>
						</g>
					</g>
				</g>
			</g>
		</g>
		<g>
			<g>
				<path fill="#341A1D" d="M112.641,122.557c0,0-0.025,0.055-0.039,0.128c-0.023,0.069,0.023,0.166,0.073,0.261
					c0.078,0.067,0.15,0.135,0.239,0.135c0.083,0.005,0.136-0.012,0.136-0.012c-0.006-0.012-0.06-0.212-0.142-0.302
					C112.85,122.682,112.645,122.548,112.641,122.557z"/>
				<path fill="#341A1D" d="M113.768,123.478c0,0,0.054,0.071,0.144,0.156c0.09,0.085,0.225,0.162,0.362,0.236
					c0.145,0.055,0.291,0.106,0.412,0.117c0.121,0.011,0.208,0.004,0.208,0.004s-0.054-0.072-0.144-0.156
					c-0.09-0.085-0.225-0.162-0.362-0.235c-0.145-0.054-0.291-0.105-0.412-0.116C113.855,123.471,113.768,123.478,113.768,123.478z"
					/>
				<path fill="#341A1D" d="M113.051,125.628c0,0,0.061,0.089,0.165,0.202c0.104,0.113,0.261,0.23,0.422,0.343
					c0.177,0.094,0.356,0.185,0.501,0.224c0.144,0.04,0.244,0.05,0.244,0.05s-0.068-0.091-0.175-0.201
					c-0.107-0.111-0.263-0.222-0.421-0.328c-0.17-0.095-0.342-0.188-0.486-0.231C113.155,125.644,113.051,125.628,113.051,125.628z"
					/>
				<path fill="#341A1D" d="M110.184,125.936c0,0,0.06,0.093,0.163,0.212c0.103,0.119,0.262,0.246,0.423,0.369
					c0.173,0.108,0.347,0.213,0.494,0.266c0.146,0.054,0.251,0.075,0.251,0.075s-0.061-0.095-0.163-0.215
					c-0.103-0.121-0.259-0.248-0.419-0.371c-0.173-0.106-0.347-0.209-0.494-0.261C110.291,125.957,110.184,125.936,110.184,125.936z
					"/>
				<path fill="#341A1D" d="M108.316,126.379c0.006,0-0.026,0.068-0.019,0.166c0,0.102,0.05,0.223,0.121,0.33
					c0.073,0.106,0.189,0.179,0.287,0.208c0.097,0.03,0.163,0.03,0.163,0.03s-0.023-0.076-0.059-0.159
					c-0.036-0.083-0.108-0.152-0.153-0.253c-0.075-0.077-0.137-0.16-0.207-0.22C108.373,126.425,108.316,126.379,108.316,126.379z"
					/>
				<path fill="#341A1D" d="M109.672,127.676c0,0,0.086,0.091,0.225,0.205c0.139,0.115,0.343,0.233,0.548,0.348
					c0.223,0.081,0.448,0.157,0.629,0.187c0.181,0.031,0.308,0.036,0.308,0.036s-0.091-0.083-0.236-0.185
					c-0.145-0.103-0.356-0.202-0.567-0.3c-0.214-0.096-0.431-0.189-0.606-0.233C109.797,127.691,109.672,127.676,109.672,127.676z"
					/>
				<path fill="#341A1D" d="M105.474,124.195c0,0-0.038,0.074-0.069,0.183c-0.045,0.102-0.005,0.266,0.031,0.427
					c0.083,0.134,0.159,0.272,0.271,0.328c0.102,0.063,0.177,0.087,0.177,0.087s-0.014-0.086-0.046-0.188
					c-0.041-0.096-0.075-0.223-0.129-0.337c-0.036-0.112-0.103-0.215-0.139-0.329C105.522,124.262,105.474,124.195,105.474,124.195z
					"/>
				<path fill="#341A1D" d="M103.376,126.857c0,0-0.043,0.051-0.083,0.128c-0.04,0.077-0.054,0.179-0.065,0.282
					c0.01,0.102,0.024,0.205,0.064,0.282c0.04,0.077,0.083,0.128,0.083,0.128s0.043-0.051,0.083-0.128
					c0.04-0.077,0.054-0.179,0.064-0.282c-0.01-0.102-0.024-0.205-0.064-0.282C103.419,126.908,103.376,126.857,103.376,126.857z"/>
				<path fill="#341A1D" d="M100.56,124.604c0,0-0.041,0.044-0.078,0.109c-0.029,0.074-0.067,0.131-0.085,0.185
					c-0.018,0.056-0.021,0.133-0.033,0.189c-0.005,0.064-0.009,0.131-0.009,0.131s0.054,0.005,0.135-0.024
					c0.09-0.024,0.138-0.119,0.189-0.214c0.003-0.055,0.007-0.109,0.01-0.16c0.006-0.054-0.031-0.081-0.042-0.115
					C100.604,124.645,100.56,124.604,100.56,124.604z"/>
				<path fill="#341A1D" d="M101.269,126.675c0,0-0.041,0.044-0.078,0.109c-0.029,0.075-0.067,0.131-0.085,0.185
					c-0.018,0.056-0.021,0.133-0.033,0.189c-0.006,0.064-0.009,0.131-0.009,0.131s0.054,0.005,0.136-0.024
					c0.09-0.024,0.138-0.119,0.189-0.214c0.003-0.055,0.007-0.109,0.01-0.16c0.006-0.054-0.031-0.081-0.042-0.114
					C101.313,126.715,101.269,126.675,101.269,126.675z"/>
				<path fill="#341A1D" d="M98.46,126.447c0,0-0.078,0.037-0.174,0.107c-0.092,0.085-0.209,0.142-0.304,0.224
					c-0.112,0.076-0.214,0.171-0.303,0.24c-0.084,0.077-0.14,0.146-0.14,0.146s0.082,0.013,0.206,0.006
					c0.128,0.003,0.269-0.08,0.414-0.157c0.12-0.124,0.247-0.249,0.263-0.365C98.453,126.533,98.46,126.447,98.46,126.447z"/>
				<path fill="#341A1D" d="M97.539,124.502c0,0-0.107,0.051-0.249,0.143c-0.142,0.092-0.303,0.242-0.461,0.395
					c-0.166,0.12-0.329,0.245-0.439,0.367c-0.11,0.122-0.182,0.222-0.182,0.222s0.11-0.022,0.273-0.084
					c0.164-0.061,0.365-0.18,0.563-0.305c0.143-0.166,0.283-0.336,0.367-0.482C97.495,124.611,97.539,124.502,97.539,124.502z"/>
				<path fill="#341A1D" d="M96.515,128.29c0,0-0.096,0.028-0.223,0.087c-0.124,0.075-0.282,0.123-0.421,0.204
					c-0.154,0.082-0.302,0.174-0.412,0.261c-0.107,0.089-0.173,0.164-0.173,0.164s0.099,0.005,0.239-0.012
					c0.14-0.012,0.311-0.084,0.482-0.153c0.16-0.114,0.335-0.217,0.395-0.342C96.476,128.381,96.515,128.29,96.515,128.29z"/>
				<path fill="#341A1D" d="M94.314,124.195c0,0-0.037,0.073-0.069,0.18c-0.019,0.117-0.07,0.226-0.092,0.337
					c-0.04,0.107-0.054,0.238-0.097,0.324c-0.03,0.096-0.048,0.184-0.048,0.184s0.072-0.018,0.179-0.081
					c0.121-0.054,0.181-0.207,0.251-0.351c0.016-0.166,0.032-0.331-0.028-0.424C94.362,124.261,94.314,124.195,94.314,124.195z"/>
				<path fill="#341A1D" d="M95.031,126.755c0,0-0.048,0.049-0.097,0.125c-0.038,0.091-0.104,0.148-0.134,0.218
					c-0.049,0.07-0.081,0.161-0.122,0.228c-0.033,0.075-0.056,0.146-0.056,0.146s0.064,0.006,0.16-0.017
					c0.105-0.014,0.187-0.114,0.274-0.211c0.046-0.133,0.088-0.269,0.043-0.346C95.068,126.813,95.031,126.755,95.031,126.755z"/>
				<path fill="#341A1D" d="M92.471,125.116c0,0-0.078,0.076-0.167,0.205c-0.09,0.133-0.169,0.312-0.256,0.482
					c-0.138,0.34-0.377,0.634-0.396,0.644c0,0,0.026-0.005,0.071-0.012c0.041-0.015,0.129-0.007,0.193-0.06
					c0.159-0.075,0.295-0.26,0.398-0.447c0.077-0.197,0.133-0.397,0.144-0.548C92.473,125.226,92.471,125.116,92.471,125.116z"/>
				<path fill="#341A1D" d="M92.369,128.086c0,0-0.09-0.034-0.222-0.06c-0.132-0.026-0.305-0.022-0.477-0.014
					c-0.173,0.068-0.344,0.145-0.457,0.229c-0.114,0.084-0.175,0.152-0.175,0.152s0.1,0.009,0.229,0.005
					c0.129-0.004,0.281-0.047,0.432-0.093c0.17-0.028,0.34-0.061,0.464-0.114C92.288,128.137,92.369,128.086,92.369,128.086z"/>
				<path fill="#341A1D" d="M90.219,125.526c0,0-0.044,0.14-0.128,0.324c-0.073,0.177-0.186,0.419-0.31,0.645
					c-0.062,0.112-0.115,0.235-0.187,0.332c-0.067,0.102-0.118,0.205-0.183,0.278c-0.108,0.165-0.215,0.264-0.215,0.264
					s0.033-0.011,0.091-0.03c0.057-0.023,0.157-0.041,0.238-0.113c0.195-0.114,0.366-0.35,0.516-0.593
					c0.119-0.262,0.212-0.529,0.213-0.756c0.018-0.109-0.015-0.194-0.019-0.255C90.224,125.561,90.219,125.526,90.219,125.526z"/>
				<path fill="#341A1D" d="M88.376,125.833c0,0-0.093-0.04-0.231-0.075c-0.143-0.028-0.312-0.064-0.481-0.083
					c-0.169-0.026-0.348-0.029-0.48-0.047c-0.136-0.007-0.241,0-0.241,0s0.066,0.07,0.188,0.157
					c0.119,0.099,0.309,0.133,0.497,0.182c0.195,0.002,0.39,0.009,0.522-0.043C88.286,125.879,88.376,125.833,88.376,125.833z"/>
				<path fill="#341A1D" d="M83.666,128.188c0,0,0.101-0.04,0.236-0.117c0.063-0.043,0.146-0.08,0.197-0.182
					c0.054-0.091,0.122-0.192,0.168-0.296c0.015-0.109,0.029-0.217,0.043-0.319c0.024-0.101-0.024-0.195-0.036-0.272
					c-0.048-0.156-0.096-0.248-0.096-0.248s-0.038,0.108-0.07,0.252c-0.013,0.146-0.082,0.321-0.12,0.496
					c-0.025,0.081-0.063,0.153-0.09,0.231c-0.017,0.078-0.064,0.16-0.111,0.22C83.707,128.087,83.666,128.188,83.666,128.188z"/>
				<path fill="#341A1D" d="M85.509,127.164c0,0-0.039,0.104-0.074,0.26c-0.012,0.076-0.022,0.176-0.064,0.249
					c-0.028,0.078-0.057,0.161-0.086,0.244c-0.094,0.154-0.156,0.34-0.255,0.45c-0.081,0.126-0.135,0.231-0.135,0.231
					s0.1-0.031,0.249-0.111c0.068-0.046,0.168-0.086,0.22-0.18c0.061-0.086,0.129-0.177,0.19-0.274
					c0.024-0.116,0.048-0.232,0.071-0.341c0.032-0.111-0.014-0.194-0.025-0.272C85.555,127.266,85.509,127.164,85.509,127.164z"/>
				<path fill="#341A1D" d="M81.414,129.826c0,0,0.043-0.115,0.083-0.288c0.04-0.173,0.054-0.403,0.065-0.634
					c-0.01-0.23-0.024-0.461-0.064-0.634c-0.04-0.173-0.083-0.288-0.083-0.288s-0.043,0.115-0.083,0.288
					c-0.04,0.173-0.054,0.403-0.064,0.634c0.01,0.23,0.025,0.461,0.065,0.634C81.371,129.711,81.414,129.826,81.414,129.826z"/>
				<path fill="#341A1D" d="M115.525,125.478c0,0-0.079-0.04-0.196-0.076c-0.132-0.016-0.238-0.096-0.353-0.128
					c-0.114-0.066-0.251-0.106-0.344-0.168c-0.102-0.049-0.191-0.08-0.191-0.08s0.017,0.081,0.075,0.199
					c0.047,0.131,0.199,0.22,0.343,0.32c0.091,0.018,0.182,0.036,0.267,0.052c0.088,0.023,0.148-0.017,0.207-0.029
					C115.45,125.523,115.525,125.478,115.525,125.478z"/>
				<path fill="#341A1D" d="M110.29,123.853c0,0,0.023,0.067,0.071,0.148c0.048,0.081,0.133,0.156,0.221,0.228
					c0.127,0.032,0.265,0.05,0.364,0.033c0.1-0.017,0.156-0.048,0.156-0.048s-0.054-0.057-0.119-0.113
					c-0.065-0.059-0.149-0.086-0.238-0.116c-0.099-0.055-0.2-0.107-0.293-0.121C110.36,123.849,110.29,123.853,110.29,123.853z"/>
				<path fill="#341A1D" d="M111.958,124.09c0,0,0.023,0.067,0.071,0.148c0.048,0.081,0.133,0.156,0.221,0.228
					c0.127,0.032,0.265,0.05,0.364,0.033c0.1-0.017,0.156-0.048,0.156-0.048s-0.054-0.057-0.119-0.113
					c-0.065-0.058-0.149-0.086-0.238-0.116c-0.099-0.055-0.2-0.107-0.293-0.121C112.028,124.086,111.958,124.09,111.958,124.09z"/>
				<path fill="#341A1D" d="M112.185,126.922c0,0,0.025,0.088,0.079,0.203c0.055,0.115,0.153,0.241,0.258,0.363
					c0.126,0.107,0.254,0.209,0.368,0.263c0.113,0.054,0.197,0.074,0.197,0.074s-0.032-0.089-0.091-0.201
					c-0.059-0.112-0.162-0.23-0.267-0.344c-0.118-0.106-0.238-0.213-0.349-0.271C112.271,126.95,112.185,126.922,112.185,126.922z"
					/>
				<path fill="#341A1D" d="M107.311,124.395c0,0-0.031,0.067-0.053,0.164c0,0.049-0.031,0.099,0,0.167
					c0.027,0.066,0.055,0.137,0.083,0.207c0.108,0.1,0.217,0.205,0.336,0.196c0.111,0.006,0.175-0.013,0.175-0.013
					s-0.046-0.068-0.101-0.136c-0.063-0.054-0.11-0.151-0.17-0.218c-0.042-0.073-0.117-0.139-0.162-0.236
					C107.364,124.446,107.311,124.395,107.311,124.395z"/>
				<path fill="#341A1D" d="M109.215,124.551c0,0-0.031,0.067-0.053,0.164c0,0.048-0.031,0.099,0,0.167
					c0.027,0.066,0.055,0.137,0.083,0.207c0.108,0.1,0.217,0.205,0.336,0.196c0.111,0.006,0.175-0.012,0.175-0.012
					s-0.046-0.068-0.101-0.136c-0.063-0.054-0.11-0.151-0.17-0.218c-0.042-0.073-0.117-0.139-0.162-0.236
					C109.268,124.602,109.215,124.551,109.215,124.551z"/>
				<path fill="#341A1D" d="M106.503,126.832c0,0-0.047,0.058-0.093,0.146c-0.012,0.047-0.055,0.09-0.042,0.162
					c0.007,0.069,0.015,0.143,0.023,0.217c0.062,0.128,0.122,0.252,0.223,0.305c0.093,0.056,0.16,0.073,0.16,0.073
					s-0.007-0.08-0.025-0.169c-0.024-0.083-0.045-0.199-0.076-0.292c-0.025-0.088-0.078-0.179-0.098-0.283
					C106.542,126.896,106.503,126.832,106.503,126.832z"/>
				<path fill="#341A1D" d="M105.131,126.164c0,0-0.047,0.058-0.093,0.147c-0.012,0.047-0.055,0.09-0.042,0.162
					c0.007,0.069,0.015,0.143,0.023,0.217c0.062,0.128,0.122,0.252,0.222,0.305c0.093,0.056,0.161,0.073,0.161,0.073
					s-0.007-0.08-0.025-0.169c-0.024-0.083-0.045-0.199-0.076-0.292c-0.025-0.088-0.078-0.179-0.098-0.283
					C105.169,126.228,105.131,126.164,105.131,126.164z"/>
				<path fill="#341A1D" d="M107.023,125.785c0,0-0.047,0.058-0.093,0.147c-0.012,0.047-0.055,0.09-0.042,0.162
					c0.007,0.069,0.015,0.143,0.023,0.217c0.062,0.128,0.122,0.251,0.223,0.305c0.093,0.056,0.16,0.073,0.16,0.073
					s-0.007-0.08-0.025-0.169c-0.024-0.083-0.045-0.199-0.076-0.292c-0.025-0.088-0.078-0.179-0.098-0.283
					C107.061,125.849,107.023,125.785,107.023,125.785z"/>
				<path fill="#341A1D" d="M104.427,124.846c0,0-0.036,0.037-0.067,0.087c-0.031,0.05-0.034,0.109-0.032,0.168
					c0.021,0.054,0.046,0.108,0.094,0.143c0.047,0.034,0.095,0.054,0.095,0.054s0.037-0.037,0.067-0.087
					c0.031-0.05,0.033-0.109,0.032-0.168c-0.021-0.054-0.047-0.108-0.094-0.142C104.475,124.866,104.427,124.846,104.427,124.846z"
					/>
				<path fill="#341A1D" d="M94.222,128.452c0,0-0.068,0.086-0.172,0.184c-0.091,0.085-0.23,0.197-0.378,0.29
					c-0.144,0.104-0.303,0.195-0.422,0.278c-0.119,0.085-0.202,0.151-0.202,0.151s0.104,0.018,0.258,0.005
					c0.155-0.011,0.348-0.084,0.53-0.19c0.167-0.131,0.315-0.289,0.362-0.461c0.04-0.075,0.013-0.141,0.022-0.186
					C94.222,128.478,94.222,128.452,94.222,128.452z"/>
				<path fill="#341A1D" d="M89.98,129.089c0,0-0.087,0.032-0.201,0.097c-0.11,0.093-0.251,0.101-0.364,0.162
					c-0.141,0.033-0.281,0.096-0.401,0.116c-0.118,0.036-0.208,0.076-0.208,0.076s0.076,0.046,0.207,0.09
					c0.065,0.012,0.144,0.052,0.229,0.033c0.086-0.012,0.177-0.024,0.269-0.036c0.088-0.044,0.174-0.103,0.25-0.153
					c0.087-0.047,0.108-0.121,0.141-0.175C89.955,129.179,89.98,129.089,89.98,129.089z"/>
				<path fill="#341A1D" d="M87.904,127.915c0,0-0.095-0.033-0.235-0.059c-0.138-0.036-0.329,0.004-0.519,0.035
					c-0.169,0.039-0.337,0.101-0.463,0.124c-0.128,0.038-0.227,0.081-0.227,0.081s0.084,0.044,0.229,0.085
					c0.15,0.056,0.338,0.019,0.529-0.004c0.167-0.045,0.328-0.112,0.466-0.156C87.817,127.967,87.904,127.915,87.904,127.915z"/>
				<path fill="#341A1D" d="M96.389,123.582c0,0-0.044,0.079-0.086,0.198c-0.015,0.058-0.034,0.136-0.072,0.185
					c-0.026,0.054-0.054,0.112-0.082,0.17c-0.077,0.113-0.13,0.252-0.202,0.342c-0.06,0.101-0.099,0.189-0.099,0.189
					s0.084-0.013,0.209-0.065c0.137-0.039,0.24-0.189,0.354-0.33c0.025-0.093,0.05-0.186,0.074-0.273
					c0.031-0.089-0.007-0.154-0.016-0.215C96.43,123.663,96.389,123.582,96.389,123.582z"/>
				<path fill="#341A1D" d="M102.295,124.37c0,0-0.044,0.079-0.086,0.198c-0.015,0.058-0.033,0.137-0.072,0.185
					c-0.026,0.054-0.054,0.112-0.082,0.17c-0.077,0.113-0.13,0.252-0.202,0.342c-0.06,0.101-0.099,0.189-0.099,0.189
					s0.084-0.013,0.209-0.064c0.137-0.039,0.24-0.189,0.354-0.33c0.025-0.093,0.05-0.185,0.074-0.273
					c0.031-0.089-0.007-0.154-0.016-0.215C102.336,124.451,102.295,124.37,102.295,124.37z"/>
				<path fill="#341A1D" d="M100.27,122.68c0,0-0.067,0.006-0.15,0.033c-0.085,0.04-0.166,0.05-0.238,0.089
					c-0.08,0.038-0.156,0.093-0.221,0.136c-0.063,0.051-0.112,0.103-0.112,0.103s0.053,0.035,0.143,0.06
					c0.093,0.034,0.205-0.002,0.32-0.035c0.1-0.072,0.211-0.153,0.226-0.237C100.264,122.746,100.27,122.68,100.27,122.68z"/>
				<path fill="#341A1D" d="M108.123,122.86c0,0-0.002,0.049,0.008,0.103c0.011,0.054,0.041,0.094,0.085,0.128
					c0.061,0.016,0.125,0.026,0.179,0.004c0.054-0.021,0.089-0.054,0.089-0.054s-0.012-0.051-0.029-0.1
					c-0.016-0.05-0.048-0.076-0.081-0.097c-0.046-0.011-0.098-0.032-0.152-0.017C108.169,122.838,108.123,122.86,108.123,122.86z"/>
				<path fill="#341A1D" d="M110.019,121.596c0,0,0.005,0.026,0.014,0.072c0.016,0.044,0.006,0.115,0.059,0.184
					c0.08,0.167,0.256,0.296,0.445,0.406c0.201,0.08,0.41,0.129,0.573,0.113c0.161-0.012,0.263-0.058,0.263-0.052
					c0,0-0.094-0.044-0.234-0.111c-0.135-0.061-0.311-0.131-0.475-0.216c-0.165-0.074-0.333-0.166-0.439-0.238
					C110.101,121.675,110.019,121.596,110.019,121.596z"/>
				<path fill="#341A1D" d="M112.727,121.687c0,0,0.065,0.068,0.171,0.146c0.111,0.073,0.243,0.162,0.389,0.233
					c0.087,0.022,0.174,0.045,0.256,0.066c0.078,0.03,0.168-0.005,0.234-0.011c0.138-0.033,0.214-0.073,0.214-0.073
					s-0.09-0.048-0.201-0.093c-0.111-0.027-0.248-0.106-0.389-0.16c-0.16-0.056-0.322-0.124-0.452-0.119
					C112.819,121.673,112.727,121.687,112.727,121.687z"/>
				<path fill="#341A1D" d="M115.796,122.86c0,0,0.093,0.052,0.233,0.106c0.14,0.053,0.333,0.089,0.525,0.12
					c0.205-0.013,0.411-0.003,0.555-0.093c0.143-0.072,0.221-0.133,0.221-0.133s-0.111-0.02-0.251-0.03
					c-0.136,0.007-0.322-0.033-0.502-0.038c-0.192-0.01-0.384-0.017-0.533,0.009C115.896,122.827,115.796,122.86,115.796,122.86z"/>
			</g>
			<g>
				<path fill="#361C1E" d="M54.505,104.108c-0.46-0.23-0.934-0.398-1.445-0.472c-0.417-0.06-0.844-0.022-1.252-0.121l-0.011-0.246
					c0.863-0.383,2.071,0.056,2.848,0.468C54.861,103.853,54.733,104.219,54.505,104.108z"/>
				<path fill="#361C1E" d="M123.469,75.55c0.017,0.06,0.026,0.12,0.025,0.184l-0.032-0.176
					C123.465,75.556,123.467,75.551,123.469,75.55z"/>
				<path fill="#361C1E" d="M99.915,85.972c-0.251-0.023-0.493-0.02-0.733-0.007c-0.092,0.005-0.183,0.015-0.274,0.024
					c-0.149,0.015-0.297,0.031-0.445,0.054c-0.101,0.016-0.201,0.031-0.302,0.05c-0.244,0.045-0.486,0.091-0.736,0.144l-0.01-0.035
					L97.4,86.154c0.019-0.01,0.041-0.013,0.061-0.023c0.156-0.073,0.318-0.132,0.484-0.178c0.063-0.018,0.126-0.03,0.19-0.045
					c0.068-0.015,0.136-0.036,0.205-0.048c0.042-0.007,0.086-0.004,0.128-0.01c0.176-0.024,0.353-0.038,0.532-0.042
					c0.068-0.002,0.135-0.008,0.203-0.007c0.245,0.003,0.49,0.016,0.728,0.044v0.001h0.001L99.915,85.972z"/>
				<path fill="#361C1E" d="M98.57,87.041c0.013-0.003,0.026-0.008,0.042-0.009c0.026-0.005,0.041,0.008,0.061,0.015
					c0.013,0.005,0.03,0.001,0.041,0.01c0.029,0.024,0.048,0.059,0.053,0.098c0.006,0.041-0.004,0.081-0.025,0.114
					c-0.007,0.012-0.02,0.014-0.031,0.023c-0.014,0.012-0.023,0.029-0.044,0.033c-0.015,0.003-0.031,0.001-0.05-0.001l-0.001,0
					l-0.001,0l-0.244-0.047l-0.025-0.15l0.223-0.085C98.569,87.04,98.569,87.041,98.57,87.041L98.57,87.041z"/>
				<path fill="#361C1E" d="M104.858,88.765c0.062-0.069,0.115-0.143,0.182-0.208l0.006-0.016l0.366-0.058
					c-0.001,0.001-0.002,0.001-0.002,0.002l0.002,0c-0.118,0.065-0.227,0.14-0.337,0.216c-0.174,0.121-0.342,0.249-0.499,0.387
					c0.001-0.001,0.002-0.002,0.002-0.003c-0.002,0.001-0.003,0.003-0.005,0.004C104.659,88.975,104.761,88.872,104.858,88.765z"/>
				<path fill="#361C1E" d="M103.685,81.179c0.052-0.005,0.106,0.011,0.133,0.067c0.076,0.158,0.159,0.302,0.263,0.432l0.019-0.01
					l0.041,0.078l0.15,0.143c0.036,0.028,0.049,0.063,0.054,0.099c0.002,0.011,0,0.019-0.001,0.03
					c-0.002,0.026-0.008,0.05-0.021,0.072c-0.005,0.009-0.008,0.016-0.015,0.024c-0.019,0.023-0.041,0.038-0.068,0.047
					c-0.006,0.002-0.01,0.007-0.016,0.008c-0.001,0-0.002,0.001-0.003,0.001c-0.037,0.006-0.071-0.002-0.109-0.031
					c-0.273-0.213-0.473-0.475-0.547-0.816c-0.008-0.039,0.002-0.071,0.021-0.097c0.007-0.009,0.019-0.012,0.028-0.02
					c0.016-0.012,0.031-0.024,0.051-0.028c0.004-0.001,0.006-0.004,0.009-0.005C103.678,81.173,103.68,81.18,103.685,81.179z"/>
				<path fill="#361C1E" d="M104.692,80.986c-0.143,0.024-0.179-0.2-0.037-0.224C104.797,80.74,104.837,80.962,104.692,80.986z"/>
				<path fill="#361C1E" d="M104.501,81.645c-0.002,0.026-0.008,0.05-0.021,0.072c-0.005,0.009-0.009,0.016-0.015,0.024
					c-0.019,0.023-0.041,0.038-0.068,0.047c-0.006,0.002-0.01,0.007-0.016,0.008c-0.001,0-0.002,0.001-0.003,0.001
					c-0.037,0.006-0.071-0.002-0.109-0.031c-0.272-0.213-0.473-0.475-0.546-0.816c-0.009-0.039,0.002-0.071,0.021-0.096
					c0.007-0.009,0.018-0.012,0.028-0.019c0.016-0.012,0.031-0.024,0.051-0.029c0.004-0.001,0.005-0.004,0.009-0.005
					c0.004-0.001,0.007,0.006,0.011,0.005c0.052-0.005,0.106,0.011,0.133,0.067c0.076,0.158,0.159,0.301,0.263,0.431l0.019-0.01
					l0.041,0.078l0.149,0.143c0.036,0.028,0.05,0.063,0.054,0.099C104.504,81.625,104.502,81.634,104.501,81.645z"/>
				<path fill="#361C1E" d="M104.85,80.614c-0.143,0.024-0.179-0.2-0.037-0.224C104.954,80.367,104.995,80.589,104.85,80.614z"/>
			</g>
		</g>
	</g>
	<g>
		<text transform="matrix(1 0 0 1 173.319 160.4492)" fill="#B05015" font-family="'HotKiss'" font-size="101.0593">gacho!</text>
		<g>
			<path fill="#361C1E" d="M179.122,47.314h4.52v5.069c0,3.424-0.525,6.438-1.575,9.04c-0.594,1.461-1.073,2.421-1.438,2.876
				c-0.366,0.457-0.913,0.684-1.644,0.684c-0.457,0-1.256-0.114-2.396-0.342c-1.644-0.366-2.683-0.799-3.117-1.302
				c-0.434-0.502-0.674-1.551-0.719-3.15c0-2.373-0.64-4.246-1.918-5.617c-0.731-0.729-1.324-1.095-1.78-1.095
				c-0.595,0-1.964,1.141-4.109,3.424c-4.246,4.613-6.369,10.115-6.369,16.506c0,3.151,0.525,6.506,1.575,10.068
				c0.866,2.876,2.134,5.41,3.801,7.602c1.666,2.191,3.16,3.287,4.486,3.287c1.14,0,3.584-0.958,7.329-2.877
				c2.784-1.414,4.451-2.121,4.999-2.121c0.456,0,0.685,0.525,0.685,1.574c0,0.594-0.229,1.348-0.685,2.261
				c-0.457,0.912-1.004,1.688-1.644,2.328c-1.004,1.004-2.225,1.644-3.663,1.918c-1.438,0.274-4.19,0.411-8.254,0.411
				c-4.382,0-7.282-0.171-8.698-0.514c-1.415-0.342-2.968-1.222-4.657-2.637c-5.297-4.473-7.944-11.231-7.944-20.271
				c0-8.127,1.849-14.29,5.548-18.492c3.698-4.2,9.108-6.301,16.231-6.301c1.872,0,3.481-0.101,4.829-0.308
				c1.346-0.205,2.02-0.467,2.02-0.787c0-0.319,0.456-0.605,1.37-0.856C176.816,47.441,177.89,47.314,179.122,47.314z
				 M223.467,53.821c-0.342-0.412-1.085-0.617-2.225-0.617c-0.96,0-1.736,0.023-2.329,0.069l-4.657,0.343
				c-0.046,1.963-0.161,4.919-0.343,8.868c-0.183,3.951-0.298,6.907-0.343,8.869h-12.19l-0.754-4.246
				c-0.503-2.921-0.752-5.752-0.752-8.492c0-3.699-0.458-6.301-1.37-7.808c-0.913-1.506-2.512-2.259-4.794-2.259
				c-2.648,0-4.177,0.594-4.588,1.781c-0.458,1.095-0.686,6.324-0.686,15.683c0,5.936,0.114,11.631,0.343,17.087
				c0.228,5.457,0.502,8.642,0.821,9.554c0.365,1.096,0.788,1.827,1.268,2.193c0.479,0.365,1.267,0.548,2.362,0.548
				c0.686,0,1.255-0.023,1.713-0.069c1.78-0.136,3.048-0.559,3.8-1.267c0.754-0.707,1.278-1.941,1.576-3.699
				c0.296-1.757,0.49-4.69,0.582-8.8l0.137-7.601l5.136-0.755c1.735-0.228,3.151-0.342,4.246-0.342c1.141,0,1.826,0.092,2.055,0.274
				c0.319,0.183,0.604,1.313,0.856,3.39c0.251,2.078,0.376,4.418,0.376,7.02c0,4.611,0.137,7.441,0.412,8.492
				c0.274,1.05,1.095,1.872,2.465,2.465c1.232,0.548,2.168,0.821,2.807,0.821c0.686,0,1.644-0.274,2.877-0.821
				c1.46-0.64,2.304-1.7,2.533-3.185c0.228-1.484,0.343-6.357,0.343-14.622c0-11.002-0.252-17.714-0.754-20.134
				C224.118,55.146,223.81,54.232,223.467,53.821z M258.052,72.244c0.798,8.036,1.199,14.656,1.199,19.861
				c0,3.927-0.4,6.62-1.199,8.082c-0.798,1.46-2.225,2.192-4.28,2.192c-1.873,0-3.425-1.086-4.657-3.254
				c-1.233-2.169-2.032-5.285-2.398-9.349l-0.616-6.986l-4.109,0.274c-1.827,0.138-3.117,0.527-3.869,1.164
				c-0.754,0.641-1.702,2.101-2.843,4.383c-2.558,5.069-4.338,7.602-5.342,7.602c-0.915,0-1.37-0.663-1.37-1.986
				c0-1.049,0.388-2.74,1.164-5.069c1.05-3.286,1.575-5.136,1.575-5.546c0-0.549-0.594-0.823-1.78-0.823
				c-0.778,0-1.164-0.068-1.164-0.205c0-0.091,0.523-0.343,1.575-0.754c2.283-0.866,5.66-9.496,10.136-25.888
				c1.233-4.52,2.031-7.281,2.398-8.287c0.274-0.912,1.757-1.369,4.451-1.369c1.552,0,3.195,0.205,4.931,0.617
				c1.004,0.228,1.757,0.81,2.26,1.747c0.503,0.936,0.981,2.568,1.439,4.896C256.42,57.977,257.254,64.208,258.052,72.244z
				 M245.28,75.257c0-4.017-0.457-6.026-1.369-6.026c-0.823,0-1.805,1.575-2.945,4.726c-1.325,3.424-1.986,5.546-1.986,6.369
				c0,0.092,0.137,0.136,0.411,0.136c0.592,0,1.575-0.159,2.945-0.479c1.232-0.32,2.031-0.764,2.396-1.336
				C245.097,78.078,245.28,76.947,245.28,75.257z M311.198,67.313c-0.069-2.465-0.206-4.736-0.411-6.814
				c-0.206-2.078-0.445-3.606-0.72-4.588c-0.274-0.983-0.708-1.816-1.301-2.501c-0.594-0.683-1.222-1.106-1.883-1.265
				s-1.54-0.24-2.636-0.24c-0.869,0-1.485,0-1.85,0c-0.366,0-0.833,0.137-1.404,0.411c-0.572,0.274-0.993,0.559-1.267,0.856
				c-0.274,0.298-0.732,0.913-1.37,1.85c-0.64,0.936-1.21,1.882-1.712,2.842c-0.503,0.96-1.279,2.421-2.328,4.383
				c-3.699,6.895-5.777,10.342-6.232,10.342c-0.457,0-2.785-3.241-6.986-9.725l-6.301-9.794h-6.163
				c-2.238,0-3.722,0.068-4.452,0.206c-0.731,0.136-1.095,0.457-1.095,0.958c0,0.274,0.113,0.754,0.342,1.438
				c0.64,1.781,1.072,8.287,1.301,19.519c0.091,3.287,0.183,6.004,0.275,8.15c0.091,2.146,0.215,3.869,0.376,5.17
				c0.159,1.301,0.343,2.226,0.548,2.774c0.206,0.548,0.468,0.821,0.788,0.821c1.049,0,1.894-4.085,2.533-12.258l0.96-12.192
				l3.767,5.412c1.918,2.694,3.572,4.565,4.965,5.615c1.392,1.05,3.002,1.575,4.827,1.575c0.229,0,1.141-0.113,2.74-0.343
				c1.688-0.274,3.092-0.821,4.212-1.643c1.118-0.821,2.476-2.261,4.075-4.314l4.108-5.274c0.137,3.013,0.319,7.579,0.549,13.697
				c0.228,6.118,0.411,10.683,0.548,13.696h11.506l-0.137-18.97C311.324,73.043,311.266,69.778,311.198,67.313z M344.345,72.244
				c0.798,8.036,1.199,14.656,1.199,19.861c0,3.927-0.4,6.62-1.199,8.082c-0.798,1.46-2.225,2.192-4.28,2.192
				c-1.873,0-3.425-1.086-4.657-3.254c-1.233-2.169-2.032-5.285-2.398-9.349l-0.616-6.986l-4.109,0.274
				c-1.827,0.138-3.117,0.527-3.869,1.164c-0.754,0.641-1.702,2.101-2.843,4.383c-2.557,5.069-4.338,7.602-5.342,7.602
				c-0.915,0-1.37-0.663-1.37-1.986c0-1.049,0.388-2.74,1.164-5.069c1.05-3.286,1.575-5.136,1.575-5.546
				c0-0.549-0.594-0.823-1.78-0.823c-0.778,0-1.164-0.068-1.164-0.205c0-0.091,0.523-0.343,1.575-0.754
				c2.283-0.866,5.66-9.496,10.136-25.888c1.233-4.52,2.031-7.281,2.398-8.287c0.274-0.912,1.757-1.369,4.451-1.369
				c1.552,0,3.195,0.205,4.931,0.617c1.004,0.228,1.757,0.81,2.259,1.747c0.503,0.936,0.981,2.568,1.439,4.896
				C342.712,57.977,343.546,64.208,344.345,72.244z M331.572,75.257c0-4.017-0.457-6.026-1.369-6.026
				c-0.823,0-1.805,1.575-2.945,4.726c-1.325,3.424-1.986,5.546-1.986,6.369c0,0.092,0.137,0.136,0.411,0.136
				c0.592,0,1.575-0.159,2.945-0.479c1.232-0.32,2.031-0.764,2.396-1.336C331.389,78.078,331.572,76.947,331.572,75.257z
				 M406.633,67.45c0,6.941-1.347,12.853-4.04,17.738c-2.558,4.657-5.091,7.739-7.601,9.245c-2.513,1.507-6.53,2.328-12.055,2.467
				c-0.411,0-0.958,0.01-1.643,0.035c-0.686,0.022-1.188,0.033-1.507,0.033c-3.653,0-6.176-0.4-7.568-1.198
				c-1.393-0.801-2.774-2.569-4.143-5.308c-0.959-1.918-1.438-4.565-1.438-7.945c0-6.071,0.719-11.265,2.157-15.58
				s3.777-8.343,7.019-12.088l3.836-4.451l9.588,0.821c5.25,0.366,8.823,1.026,10.718,1.986c1.895,0.959,3.641,2.968,5.239,6.026
				C406.155,61.104,406.633,63.844,406.633,67.45z M397.388,69.915c0-3.607-0.8-6.918-2.396-9.93
				c-1.964-3.653-3.562-5.48-4.794-5.48c-1.736,0-3.562,1.37-5.48,4.11c-1.918,2.739-3.516,6.209-4.794,10.411
				c-1.278,4.2-1.918,8.217-1.918,12.052c0,2.832,0.627,5.754,1.883,8.767c1.255,3.014,2.454,4.52,3.596,4.52
				c0.639,0,2.35-1.438,5.136-4.315C394.466,83.932,397.388,77.221,397.388,69.915z"/>
			<path fill="#B05015" d="M414.371,58.713c0.932,2.529,0.563,5.276-11.735,10.408l-0.577,0.243c0.288,0.996,0.19,1.655,0.19,1.655
				c3.708-0.641,8.582-1.837,13.271-4.051c4.688-2.213,5.706-3.923,4.685-7.738l42.287-15.63l1.017,0.715
				c0.534,0.375,1.134,0.478,1.653,0.29l22.274-7.619c0-2.403-0.236-5.162-2.353-7.286l-22.943,6.705
				c-0.516,0.192-0.907,0.662-1.069,1.296l-0.312,1.199l-42.285,15.631c-1.696-3.561-3.582-4.199-8.586-2.844
				c-5.335,1.448-10.068,3.91-13.342,5.901c0.466,0.269,1.021,0.816,1.241,1.1C410.915,54.46,413.466,56.257,414.371,58.713z"/>
		</g>
	</g>
</g>
</svg>
